<?xml version="1.0" encoding="UTF-8"?>
<svg version="1.1" xmlns="http://www.w3.org/2000/svg" width="1000" height="1000">
<path d="M0 0 C1.18670288 -0.00095673 2.37340576 -0.00191345 3.59606934 -0.00289917 C6.09383192 -0.00357673 8.59159631 -0.00175217 11.08935547 0.00244141 C14.89424628 0.00779561 18.69901907 0.00248191 22.50390625 -0.00390625 C24.94010442 -0.00324539 27.37630253 -0.00196408 29.8125 0 C30.9408728 -0.00202423 32.06924561 -0.00404846 33.23181152 -0.00613403 C50.31757082 0.04413332 50.31757082 0.04413332 52.40625 2.1328125 C53.88760898 2.49809689 55.38137181 2.81349663 56.87890625 3.10546875 C57.77802734 3.28271484 58.67714844 3.45996094 59.60351562 3.64257812 C61.02180664 3.91618164 61.02180664 3.91618164 62.46875 4.1953125 C63.8928418 4.4747168 63.8928418 4.4747168 65.34570312 4.75976562 C67.69857047 5.22088033 70.05208076 5.67839942 72.40625 6.1328125 C72.40625 6.7928125 72.40625 7.4528125 72.40625 8.1328125 C73.128125 8.0915625 73.85 8.0503125 74.59375 8.0078125 C77.65291798 8.14377552 79.60636257 8.94286034 82.40625 10.1328125 C83.251875 10.2771875 84.0975 10.4215625 84.96875 10.5703125 C87.40625 11.1328125 87.40625 11.1328125 89.19921875 12.53125 C91.75441479 14.38546305 94.1772982 15.29186486 97.15625 16.3203125 C98.14109375 16.66449219 99.1259375 17.00867188 100.140625 17.36328125 C100.88828125 17.61722656 101.6359375 17.87117188 102.40625 18.1328125 C102.40625 18.7928125 102.40625 19.4528125 102.40625 20.1328125 C103.02113281 20.32617188 103.63601563 20.51953125 104.26953125 20.71875 C105.07777344 20.97914063 105.88601563 21.23953125 106.71875 21.5078125 C107.51925781 21.76304687 108.31976562 22.01828125 109.14453125 22.28125 C111.40625 23.1328125 111.40625 23.1328125 114.40625 25.1328125 C114.40625 25.7928125 114.40625 26.4528125 114.40625 27.1328125 C116.05625 27.4628125 117.70625 27.7928125 119.40625 28.1328125 C119.40625 28.7928125 119.40625 29.4528125 119.40625 30.1328125 C120.39625 30.1328125 121.38625 30.1328125 122.40625 30.1328125 C122.40625 30.7928125 122.40625 31.4528125 122.40625 32.1328125 C123.06625 32.1328125 123.72625 32.1328125 124.40625 32.1328125 C124.40625 32.7928125 124.40625 33.4528125 124.40625 34.1328125 C126.05625 34.4628125 127.70625 34.7928125 129.40625 35.1328125 C129.40625 35.7928125 129.40625 36.4528125 129.40625 37.1328125 C130.19 37.4421875 130.97375 37.7515625 131.78125 38.0703125 C134.40625 39.1328125 134.40625 39.1328125 136.40625 40.1328125 C136.40625 40.7928125 136.40625 41.4528125 136.40625 42.1328125 C137.06625 42.1328125 137.72625 42.1328125 138.40625 42.1328125 C138.40625 42.7928125 138.40625 43.4528125 138.40625 44.1328125 C139.334375 44.596875 139.334375 44.596875 140.28125 45.0703125 C141.65625 45.7578125 143.03125 46.4453125 144.40625 47.1328125 C144.40625 47.7928125 144.40625 48.4528125 144.40625 49.1328125 C145.06625 49.1328125 145.72625 49.1328125 146.40625 49.1328125 C146.40625 49.7928125 146.40625 50.4528125 146.40625 51.1328125 C147.39625 51.4628125 148.38625 51.7928125 149.40625 52.1328125 C149.40625 52.7928125 149.40625 53.4528125 149.40625 54.1328125 C150.06625 54.1328125 150.72625 54.1328125 151.40625 54.1328125 C151.40625 54.7928125 151.40625 55.4528125 151.40625 56.1328125 C152.06625 56.1328125 152.72625 56.1328125 153.40625 56.1328125 C155.03125 57.5078125 155.03125 57.5078125 156.40625 59.1328125 C156.40625 59.7928125 156.40625 60.4528125 156.40625 61.1328125 C157.06625 61.1328125 157.72625 61.1328125 158.40625 61.1328125 C159.39625 63.6078125 159.39625 63.6078125 160.40625 66.1328125 C161.06625 66.1328125 161.72625 66.1328125 162.40625 66.1328125 C165.7653431 69.14738323 168.34120763 72.11141421 170.40625 76.1328125 C170.40625 76.7928125 170.40625 77.4528125 170.40625 78.1328125 C171.06625 78.1328125 171.72625 78.1328125 172.40625 78.1328125 C172.40625 79.1228125 172.40625 80.1128125 172.40625 81.1328125 C173.06625 81.1328125 173.72625 81.1328125 174.40625 81.1328125 C174.86 82.1021875 175.31375 83.0715625 175.78125 84.0703125 C177.06411221 87.20360832 177.06411221 87.20360832 179.40625 88.1328125 C180.13670396 89.82613758 180.86197251 91.52211877 181.546875 93.234375 C182.46445221 95.41343177 182.46445221 95.41343177 184.53125 98.1953125 C186.5103216 101.295858 187.06083668 103.50597263 187.40625 107.1328125 C188.06625 107.1328125 188.72625 107.1328125 189.40625 107.1328125 C189.40625 108.7828125 189.40625 110.4328125 189.40625 112.1328125 C190.06625 112.1328125 190.72625 112.1328125 191.40625 112.1328125 C191.40625 113.4528125 191.40625 114.7728125 191.40625 116.1328125 C192.06625 116.1328125 192.72625 116.1328125 193.40625 116.1328125 C193.73625 118.7728125 194.06625 121.4128125 194.40625 124.1328125 C195.06625 124.1328125 195.72625 124.1328125 196.40625 124.1328125 C196.91369423 126.02666687 197.41189574 127.92299916 197.90625 129.8203125 C198.32390625 131.40392578 198.32390625 131.40392578 198.75 133.01953125 C199.3454215 135.84423922 199.53411492 138.26117958 199.40625 141.1328125 C200.06625 141.1328125 200.72625 141.1328125 201.40625 141.1328125 C201.73625 142.4528125 202.06625 143.7728125 202.40625 145.1328125 C204.38625 145.1328125 206.36625 145.1328125 208.40625 145.1328125 C208.40625 144.4728125 208.40625 143.8128125 208.40625 143.1328125 C212.03625 142.8028125 215.66625 142.4728125 219.40625 142.1328125 C219.40625 141.8028125 219.40625 141.4728125 219.40625 141.1328125 C226.33625 141.1328125 233.26625 141.1328125 240.40625 141.1328125 C240.40625 141.4628125 240.40625 141.7928125 240.40625 142.1328125 C244.36625 142.4628125 248.32625 142.7928125 252.40625 143.1328125 C252.40625 143.7928125 252.40625 144.4528125 252.40625 145.1328125 C253.334375 145.0709375 254.2625 145.0090625 255.21875 144.9453125 C260.49001961 144.9127738 265.40600875 146.61375187 270.40625 148.1328125 C270.40625 148.7928125 270.40625 149.4528125 270.40625 150.1328125 C271.72625 150.1328125 273.04625 150.1328125 274.40625 150.1328125 C274.40625 150.7928125 274.40625 151.4528125 274.40625 152.1328125 C277.04625 152.4628125 279.68625 152.7928125 282.40625 153.1328125 C282.40625 153.7928125 282.40625 154.4528125 282.40625 155.1328125 C283.39625 155.1328125 284.38625 155.1328125 285.40625 155.1328125 C285.40625 155.7928125 285.40625 156.4528125 285.40625 157.1328125 C287.05625 157.4628125 288.70625 157.7928125 290.40625 158.1328125 C290.40625 158.7928125 290.40625 159.4528125 290.40625 160.1328125 C291.39625 160.1328125 292.38625 160.1328125 293.40625 160.1328125 C293.40625 160.7928125 293.40625 161.4528125 293.40625 162.1328125 C294.169375 162.4215625 294.9325 162.7103125 295.71875 163.0078125 C298.40625 164.1328125 298.40625 164.1328125 301.40625 166.1328125 C301.73625 167.1228125 302.06625 168.1128125 302.40625 169.1328125 C304.05625 169.4628125 305.70625 169.7928125 307.40625 170.1328125 C307.40625 170.7928125 307.40625 171.4528125 307.40625 172.1328125 C308.06625 172.1328125 308.72625 172.1328125 309.40625 172.1328125 C311.02734375 173.7421875 311.02734375 173.7421875 312.84375 175.8828125 C313.44058594 176.57890625 314.03742188 177.275 314.65234375 177.9921875 C319.40625 183.79428243 319.40625 183.79428243 319.40625 186.1328125 C320.06625 186.1328125 320.72625 186.1328125 321.40625 186.1328125 C324.40625 190.51742788 324.40625 190.51742788 324.40625 193.1328125 C325.045625 193.3390625 325.685 193.5453125 326.34375 193.7578125 C328.40625 195.1328125 328.40625 195.1328125 329.15625 198.2578125 C329.23875 199.2065625 329.32125 200.1553125 329.40625 201.1328125 C330.06625 201.1328125 330.72625 201.1328125 331.40625 201.1328125 C331.40625 202.4528125 331.40625 203.7728125 331.40625 205.1328125 C332.06625 205.1328125 332.72625 205.1328125 333.40625 205.1328125 C333.40625 206.1228125 333.40625 207.1128125 333.40625 208.1328125 C334.06625 208.1328125 334.72625 208.1328125 335.40625 208.1328125 C335.73625 211.1028125 336.06625 214.0728125 336.40625 217.1328125 C337.06625 217.1328125 337.72625 217.1328125 338.40625 217.1328125 C338.40625 218.7828125 338.40625 220.4328125 338.40625 222.1328125 C339.06625 222.1328125 339.72625 222.1328125 340.40625 222.1328125 C340.53902344 223.05964844 340.67179687 223.98648438 340.80859375 224.94140625 C340.98519531 226.13894531 341.16179687 227.33648438 341.34375 228.5703125 C341.60478516 230.36275391 341.60478516 230.36275391 341.87109375 232.19140625 C342.09610213 235.01236926 342.09610213 235.01236926 343.40625 236.1328125 C345.04170874 249.15590988 344.48620416 262.09622304 343.40625 275.1328125 C342.74625 275.1328125 342.08625 275.1328125 341.40625 275.1328125 C341.426875 276.3290625 341.4475 277.5253125 341.46875 278.7578125 C341.47507571 282.31286119 341.10513875 285.63836874 340.40625 289.1328125 C340.07625 289.1328125 339.74625 289.1328125 339.40625 289.1328125 C339.07625 290.7828125 338.74625 292.4328125 338.40625 294.1328125 C337.74625 294.1328125 337.08625 294.1328125 336.40625 294.1328125 C336.07625 296.7728125 335.74625 299.4128125 335.40625 302.1328125 C334.74625 302.1328125 334.08625 302.1328125 333.40625 302.1328125 C333.40625 303.4528125 333.40625 304.7728125 333.40625 306.1328125 C332.74625 306.1328125 332.08625 306.1328125 331.40625 306.1328125 C330.33099806 308.78510062 329.31168849 311.41649704 328.40625 314.1328125 C327.74625 314.1328125 327.08625 314.1328125 326.40625 314.1328125 C326.40625 314.7928125 326.40625 315.4528125 326.40625 316.1328125 C325.74625 316.1328125 325.08625 316.1328125 324.40625 316.1328125 C324.2825 316.7309375 324.15875 317.3290625 324.03125 317.9453125 C323.40625 320.1328125 323.40625 320.1328125 321.40625 323.1328125 C320.74625 323.1328125 320.08625 323.1328125 319.40625 323.1328125 C319.40625 324.1228125 319.40625 325.1128125 319.40625 326.1328125 C318.74625 326.1328125 318.08625 326.1328125 317.40625 326.1328125 C317.40625 326.7928125 317.40625 327.4528125 317.40625 328.1328125 C316.74625 328.1328125 316.08625 328.1328125 315.40625 328.1328125 C315.07625 329.1228125 314.74625 330.1128125 314.40625 331.1328125 C313.74625 331.1328125 313.08625 331.1328125 312.40625 331.1328125 C312.07625 332.4528125 311.74625 333.7728125 311.40625 335.1328125 C310.08625 335.4628125 308.76625 335.7928125 307.40625 336.1328125 C307.40625 336.7928125 307.40625 337.4528125 307.40625 338.1328125 C306.74625 338.1328125 306.08625 338.1328125 305.40625 338.1328125 C305.40625 338.7928125 305.40625 339.4528125 305.40625 340.1328125 C304.74625 340.1328125 304.08625 340.1328125 303.40625 340.1328125 C303.40625 340.7928125 303.40625 341.4528125 303.40625 342.1328125 C299.02163462 345.1328125 299.02163462 345.1328125 296.40625 345.1328125 C296.40625 345.7928125 296.40625 346.4528125 296.40625 347.1328125 C293.50076118 349.17450735 292.00482954 350.1328125 288.40625 350.1328125 C288.40625 350.7928125 288.40625 351.4528125 288.40625 352.1328125 C287.41625 352.1328125 286.42625 352.1328125 285.40625 352.1328125 C285.40625 352.7928125 285.40625 353.4528125 285.40625 354.1328125 C283.42625 354.4628125 281.44625 354.7928125 279.40625 355.1328125 C279.40625 355.7928125 279.40625 356.4528125 279.40625 357.1328125 C278.08625 357.1328125 276.76625 357.1328125 275.40625 357.1328125 C275.40625 357.7928125 275.40625 358.4528125 275.40625 359.1328125 C266.97767857 362.56138393 266.97767857 362.56138393 262.40625 362.1328125 C262.40625 362.7928125 262.40625 363.4528125 262.40625 364.1328125 C261.56320312 364.26558594 260.72015625 364.39835937 259.8515625 364.53515625 C258.75585938 364.71175781 257.66015625 364.88835937 256.53125 365.0703125 C255.44070313 365.24433594 254.35015625 365.41835938 253.2265625 365.59765625 C250.46803454 365.98832409 250.46803454 365.98832409 248.40625 367.1328125 C246.53245395 367.20315019 244.65623898 367.2171147 242.78125 367.1953125 C241.77835938 367.18628906 240.77546875 367.17726563 239.7421875 367.16796875 C238.58589844 367.15056641 238.58589844 367.15056641 237.40625 367.1328125 C237.40625 367.7928125 237.40625 368.4528125 237.40625 369.1328125 C199.63008813 369.24731432 161.85395244 369.33539002 124.07765208 369.38813915 C119.61548847 369.39439251 115.15332521 369.40086414 110.69116211 369.4074707 C109.80284432 369.40878226 108.91452653 369.41009381 107.99929003 369.4114451 C93.6251132 369.43318801 79.25103659 369.47260339 64.87691917 369.51857648 C50.1223004 369.56537216 35.36773402 369.59311447 20.61304408 369.60325497 C11.51220247 369.61010769 2.41164415 369.6317332 -6.68911024 369.67239483 C-12.93404902 369.69887164 -19.17884183 369.70680235 -25.42383263 369.70031939 C-29.0242883 369.69712412 -32.62424973 369.70194203 -36.224617 369.72883987 C-40.13583103 369.75784523 -44.04640835 369.74771114 -47.9577179 369.73408508 C-49.08517923 369.74864929 -50.21264057 369.7632135 -51.3742674 369.77821904 C-59.12626675 369.7054111 -64.80299039 367.84524528 -71.59375 364.1328125 C-71.59375 363.4728125 -71.59375 362.8128125 -71.59375 362.1328125 C-72.25375 362.1328125 -72.91375 362.1328125 -73.59375 362.1328125 C-73.59375 361.4728125 -73.59375 360.8128125 -73.59375 360.1328125 C-74.191875 359.9678125 -74.79 359.8028125 -75.40625 359.6328125 C-78.81409506 357.29600446 -79.65132762 353.99812004 -80.59375 350.1328125 C-81.01104714 345.81017326 -80.98595421 341.51415944 -80.95451355 337.17419434 C-80.95707682 335.87695639 -80.9596401 334.57971845 -80.96228105 333.24317026 C-80.96896459 329.65824604 -80.95702301 326.07359253 -80.94194686 322.48870277 C-80.92895981 318.61696025 -80.93337785 314.7452323 -80.93565369 310.87347412 C-80.93722474 304.17063293 -80.92783315 297.46787953 -80.91094017 290.76506042 C-80.88653189 281.07399103 -80.87874303 271.38296397 -80.8749762 261.69186717 C-80.86841458 245.96773115 -80.84846128 230.24364189 -80.82006836 214.51953125 C-80.79252029 199.24739821 -80.77129037 183.97527788 -80.75854492 168.703125 C-80.75775675 167.76133619 -80.75696858 166.81954737 -80.75615653 165.8492195 C-80.75224134 161.12441814 -80.74845023 156.39961669 -80.74472082 151.67481518 C-80.71363394 112.49411488 -80.66080603 73.31346678 -80.59375 34.1328125 C-79.93375 34.1328125 -79.27375 34.1328125 -78.59375 34.1328125 C-78.26375 31.8228125 -77.93375 29.5128125 -77.59375 27.1328125 C-76.93375 27.1328125 -76.27375 27.1328125 -75.59375 27.1328125 C-75.366875 26.3490625 -75.14 25.5653125 -74.90625 24.7578125 C-73.59375 22.1328125 -73.59375 22.1328125 -70.96875 20.8203125 C-70.185 20.5934375 -69.40125 20.3665625 -68.59375 20.1328125 C-68.59375 19.4728125 -68.59375 18.8128125 -68.59375 18.1328125 C-62.96875 15.1328125 -62.96875 15.1328125 -59.59375 15.1328125 C-59.59375 14.4728125 -59.59375 13.8128125 -59.59375 13.1328125 C-58.27375 13.1328125 -56.95375 13.1328125 -55.59375 13.1328125 C-55.59375 12.4728125 -55.59375 11.8128125 -55.59375 11.1328125 C-47.16517857 7.70424107 -47.16517857 7.70424107 -42.59375 8.1328125 C-42.59375 7.4728125 -42.59375 6.8128125 -42.59375 6.1328125 C-41.73910156 6.00003906 -40.88445313 5.86726563 -40.00390625 5.73046875 C-38.89917969 5.55386719 -37.79445313 5.37726563 -36.65625 5.1953125 C-35.55410156 5.02128906 -34.45195313 4.84726562 -33.31640625 4.66796875 C-30.68948071 4.41436114 -30.68948071 4.41436114 -29.59375 3.1328125 C-26.92316149 2.99166089 -24.26942762 3.09034143 -21.59375 3.1328125 C-21.59375 2.4728125 -21.59375 1.8128125 -21.59375 1.1328125 C-14.36466589 0.17546272 -7.28723912 -0.01307286 0 0 Z " fill="#FFFFFF" transform="translate(566.59375,322.8671875)"/>
<path d="M0 0 C0 0.66 0 1.32 0 2 C0.99 2.33 1.98 2.66 3 3 C8.00364859 13.00729719 6.19449863 27.16210401 6 38 C6.66 38 7.32 38 8 38 C8.03758423 38.96039185 8.03758423 38.96039185 8.07592773 39.94018555 C8.1923546 42.85613726 8.31486867 45.7718029 8.4375 48.6875 C8.47681641 49.69490234 8.51613281 50.70230469 8.55664062 51.74023438 C8.59853516 52.71669922 8.64042969 53.69316406 8.68359375 54.69921875 C8.72025146 55.59471436 8.75690918 56.49020996 8.79467773 57.4128418 C8.94975589 60.0125373 8.94975589 60.0125373 9.51586914 62.57714844 C9.96624467 64.83107014 10.10271185 66.77684423 10.0625 69.06640625 C10.05476563 69.79923828 10.04703125 70.53207031 10.0390625 71.28710938 C10.02617187 72.03798828 10.01328125 72.78886719 10 73.5625 C9.77122906 78.74532631 9.77122906 78.74532631 10.48632812 83.83374023 C11.18167869 86.76617636 11.20317582 89.58208004 11.28125 92.59375 C11.33732422 94.50994141 11.33732422 94.50994141 11.39453125 96.46484375 C11.44811574 98.48581466 11.50017576 100.50682162 11.55224609 102.52783203 C11.60420258 104.48740188 11.66141077 106.44683026 11.71875 108.40625 C11.74904297 109.57478516 11.77933594 110.74332031 11.81054688 111.94726562 C11.88930315 114.83365204 11.88930315 114.83365204 12.50390434 116.89582634 C13.05618798 119.2383195 13.12587683 121.31332799 13.12698364 123.71951294 C13.12980347 124.66450653 13.13262329 125.60950012 13.13552856 126.58312988 C13.13350433 127.6128894 13.1314801 128.64264893 13.12939453 129.70361328 C13.13114685 130.7933847 13.13289917 131.88315613 13.13470459 133.00595093 C13.13910865 136.61075428 13.13619057 140.21550864 13.1328125 143.8203125 C13.13348586 146.32087209 13.13445615 148.82143161 13.13571167 151.32199097 C13.1371866 156.56248476 13.13513545 161.80296576 13.13037109 167.04345703 C13.12492345 173.10560551 13.12669614 179.16772038 13.1321975 185.22986805 C13.13727721 191.06045424 13.13674623 196.89102762 13.13381577 202.72161484 C13.13314694 205.20402913 13.13397339 207.68644428 13.13629532 210.16885757 C13.13882325 213.63098707 13.13497948 217.09305118 13.12939453 220.55517578 C13.13141876 221.58898376 13.13344299 222.62279175 13.13552856 223.68792725 C13.13270874 224.62728119 13.12988892 225.56663513 13.12698364 226.53445435 C13.12660662 227.353342 13.12622959 228.17222965 13.12584114 229.01593208 C13 231 13 231 12 233 C11.85871483 234.77680673 11.77405137 236.55828673 11.71875 238.33984375 C11.68136719 239.40267578 11.64398438 240.46550781 11.60546875 241.56054688 C11.57066406 242.67494141 11.53585937 243.78933594 11.5 244.9375 C11.43115248 247.13424589 11.35841247 249.33087421 11.28125 251.52734375 C11.25095703 252.50437256 11.22066406 253.48140137 11.18945312 254.48803711 C11 257 11 257 10 260 C9.93170883 263.03468874 10.0023336 266.05520085 10.0625 269.08984375 C10.00697566 271.67519584 9.6286868 273.5265534 9 276 C8.77711499 278.58656673 8.58685615 281.15952778 8.4375 283.75 C8.37272461 284.79607422 8.37272461 284.79607422 8.30664062 285.86328125 C8.20110404 287.57531922 8.1001009 289.28763561 8 291 C7.34 291 6.68 291 6 291 C6 294.96 6 298.92 6 303 C5.34 303 4.68 303 4 303 C4.05220703 303.92232422 4.05220703 303.92232422 4.10546875 304.86328125 C4.13253906 305.67152344 4.15960938 306.47976563 4.1875 307.3125 C4.22230469 308.11300781 4.25710938 308.91351562 4.29296875 309.73828125 C4 312 4 312 2.61328125 313.79296875 C1 315 1 315 -1 315 C-1 315.66 -1 316.32 -1 317 C-4.3 317 -7.6 317 -11 317 C-11 316.34 -11 315.68 -11 315 C-11.99 314.67 -12.98 314.34 -14 314 C-14 313.34 -14 312.68 -14 312 C-14.66 312 -15.32 312 -16 312 C-16.22786458 309.94921875 -16.45572917 307.8984375 -16.68359375 305.84765625 C-16.81886614 303.98859771 -16.81886614 303.98859771 -18 303 C-18.23481693 300.81707226 -18.41363323 298.62796826 -18.5625 296.4375 C-18.64628906 295.23996094 -18.73007812 294.04242187 -18.81640625 292.80859375 C-18.87699219 291.88175781 -18.93757813 290.95492188 -19 290 C-19.33 290 -19.66 290 -20 290 C-20.05534912 288.95545654 -20.11069824 287.91091309 -20.16772461 286.8347168 C-20.37414317 282.95997142 -20.58602514 279.08554079 -20.79956055 275.21118164 C-20.89122219 273.53417921 -20.98140126 271.85709506 -21.07006836 270.17993164 C-21.1977611 267.76946367 -21.33077972 265.35933971 -21.46484375 262.94921875 C-21.50343002 262.19912033 -21.5420163 261.44902191 -21.58177185 260.67619324 C-21.7586846 257.57537207 -22.01252024 254.96243927 -23 252 C-23.15070797 249.86338742 -23.2485966 247.72287876 -23.31640625 245.58203125 C-23.37924805 243.70161133 -23.37924805 243.70161133 -23.44335938 241.78320312 C-23.48267578 240.47287109 -23.52199219 239.16253906 -23.5625 237.8125 C-23.60570992 236.47720022 -23.649325 235.14191348 -23.69335938 233.80664062 C-23.79956502 230.53786703 -23.90160997 227.26901667 -24 224 C-24.33 224 -24.66 224 -25 224 C-25 192.32 -25 160.64 -25 128 C-24.67 128 -24.34 128 -24 128 C-23.97494385 126.95021973 -23.9498877 125.90043945 -23.92407227 124.81884766 C-23.83003733 120.93118676 -23.7298072 117.04370619 -23.62768555 113.15625 C-23.58432183 111.47237358 -23.5426478 109.78845277 -23.50268555 108.10449219 C-23.44501766 105.68671276 -23.3813135 103.26915705 -23.31640625 100.8515625 C-23.29969376 100.0963028 -23.28298126 99.34104309 -23.26576233 98.56289673 C-23.11387171 93.22774341 -23.11387171 93.22774341 -22 91 C-21.85229538 89.27545058 -21.7632231 87.54572899 -21.70288086 85.81591797 C-21.66291489 84.73494843 -21.62294891 83.65397888 -21.58177185 82.54025269 C-21.52389244 80.78396042 -21.52389244 80.78396042 -21.46484375 78.9921875 C-21.42186661 77.79643097 -21.37888947 76.60067444 -21.33460999 75.36868286 C-21.19791378 71.53759397 -21.06763918 67.7063167 -20.9375 63.875 C-20.84612498 61.28253718 -20.75433354 58.690089 -20.66210938 56.09765625 C-20.43656821 49.73193305 -20.21630334 43.36604342 -20 37 C-19.67 37 -19.34 37 -19 37 C-18.96241577 36.05362671 -18.96241577 36.05362671 -18.92407227 35.08813477 C-18.80845863 32.24603175 -18.68557684 29.40428917 -18.5625 26.5625 C-18.50352539 25.07266602 -18.50352539 25.07266602 -18.44335938 23.55273438 C-18.40146484 22.60849609 -18.35957031 21.66425781 -18.31640625 20.69140625 C-18.26141968 19.37958374 -18.26141968 19.37958374 -18.20532227 18.04125977 C-18 16 -18 16 -17 15 C-16.76636119 13.15108054 -16.58696365 11.29511969 -16.4375 9.4375 C-16.35371094 8.42558594 -16.26992188 7.41367187 -16.18359375 6.37109375 C-16.12300781 5.58863281 -16.06242187 4.80617188 -16 4 C-15.34 4 -14.68 4 -14 4 C-14 3.34 -14 2.68 -14 2 C-13.34 2 -12.68 2 -12 2 C-12 1.34 -12 0.68 -12 0 C-7.91556885 -1.53166168 -4.20544343 -0.63081652 0 0 Z " fill="#FFFFFF" transform="translate(449,375)"/>
<path d="M0 0 C3.3 0 6.6 0 10 0 C10 0.66 10 1.32 10 2 C10.99 2 11.98 2 13 2 C13 2.66 13 3.32 13 4 C13.66 4 14.32 4 15 4 C15.05534912 4.65073486 15.11069824 5.30146973 15.16772461 5.97192383 C15.42053693 8.91912099 15.67895326 11.8658006 15.9375 14.8125 C16.02451172 15.83666016 16.11152344 16.86082031 16.20117188 17.91601562 C16.28818359 18.89892578 16.37519531 19.88183594 16.46484375 20.89453125 C16.543396 21.80050049 16.62194824 22.70646973 16.70288086 23.63989258 C16.94046098 26.14680749 16.94046098 26.14680749 18 29 C18.13369521 30.39518533 18.22329908 31.79493462 18.28125 33.1953125 C18.33732422 34.39220703 18.33732422 34.39220703 18.39453125 35.61328125 C18.46517123 37.2955592 18.53548071 38.97785105 18.60546875 40.66015625 C18.4025851 44.65379008 18.4025851 44.65379008 20 48 C20.15655027 49.48638992 20.25066943 50.97949127 20.31640625 52.47265625 C20.35830078 53.37177734 20.40019531 54.27089844 20.44335938 55.19726562 C20.48267578 56.14279297 20.52199219 57.08832031 20.5625 58.0625 C20.60568359 59.01189453 20.64886719 59.96128906 20.69335938 60.93945312 C20.79979276 63.29281353 20.90181008 65.64628354 21 68 C21.33 68 21.66 68 22 68 C22.26604872 77.11286364 22.52705891 86.22585567 22.78230286 95.33902836 C22.90107458 99.57447754 23.02133623 103.80987143 23.14550781 108.04516602 C23.98406197 136.71141123 24.34890634 165.32495709 23.5625 194 C23.51755654 195.74405659 23.47271771 197.48811589 23.42797852 199.23217773 C23.09653099 211.82828469 22.64359766 224.41561173 22 237 C21.67 237 21.34 237 21 237 C20.67 242.94 20.34 248.88 20 255 C19.34 255 18.68 255 18 255 C18.01160156 255.99902344 18.02320313 256.99804688 18.03515625 258.02734375 C18.04417969 259.31769531 18.05320312 260.60804688 18.0625 261.9375 C18.07410156 263.22527344 18.08570313 264.51304687 18.09765625 265.83984375 C18 269 18 269 17 270 C16.599617 272.85528607 16.2481773 275.69736487 15.9375 278.5625 C15.84662109 279.36880859 15.75574219 280.17511719 15.66210938 281.00585938 C15.43752551 283.00347377 15.21826764 285.0016856 15 287 C14.34 287 13.68 287 13 287 C13 287.66 13 288.32 13 289 C12.01 289 11.02 289 10 289 C10 289.66 10 290.32 10 291 C8.46089264 291.13687714 6.91812705 291.23284005 5.375 291.3125 C4.51648438 291.37050781 3.65796875 291.42851563 2.7734375 291.48828125 C-0.32756 290.94233099 -2.42559813 289.96017214 -4.76855469 287.82983398 C-7.4219517 283.88708803 -7.13280959 278.98420172 -7.3125 274.375 C-7.43107308 272.29933364 -7.55205752 270.22380322 -7.67578125 268.1484375 C-7.7363269 266.77437744 -7.7363269 266.77437744 -7.7980957 265.37255859 C-7.91919322 262.85134221 -7.91919322 262.85134221 -9 260 C-9.30934578 256.38666947 -9.50952135 252.77274669 -9.71875 249.15234375 C-9.79722339 246.10058675 -9.79722339 246.10058675 -11 244 C-11.15067214 242.5534758 -11.24861036 241.1012066 -11.31640625 239.6484375 C-11.35830078 238.79765625 -11.40019531 237.946875 -11.44335938 237.0703125 C-11.48267578 236.18085937 -11.52199219 235.29140625 -11.5625 234.375 C-11.60568359 233.4778125 -11.64886719 232.580625 -11.69335938 231.65625 C-11.79956861 229.43765717 -11.90161194 227.2189512 -12 225 C-12.33 225 -12.66 225 -13 225 C-14.96013091 178.42082533 -14.61957965 131.58445182 -13 85 C-12.67 85 -12.34 85 -12 85 C-11.97494385 84.2479126 -11.9498877 83.4958252 -11.92407227 82.72094727 C-11.80849486 79.33460804 -11.68559655 75.94857387 -11.5625 72.5625 C-11.52318359 71.37849609 -11.48386719 70.19449219 -11.44335938 68.97460938 C-11.38051758 67.28754883 -11.38051758 67.28754883 -11.31640625 65.56640625 C-11.27974854 64.52427979 -11.24309082 63.48215332 -11.20532227 62.40844727 C-11 60 -11 60 -10 59 C-9.85515151 57.46359803 -9.77296059 55.92116865 -9.71875 54.37890625 C-9.68136719 53.44369141 -9.64398438 52.50847656 -9.60546875 51.54492188 C-9.55326172 50.06862305 -9.55326172 50.06862305 -9.5 48.5625 C-9.43125383 46.62614952 -9.35853125 44.68993487 -9.28125 42.75390625 C-9.23581055 41.45948608 -9.23581055 41.45948608 -9.18945312 40.13891602 C-9 38 -9 38 -8 36 C-7.82334192 33.71267474 -7.70135621 31.42103856 -7.60546875 29.12890625 C-7.53669231 27.73628414 -7.46700249 26.34370688 -7.39648438 24.95117188 C-7.28908037 22.75467402 -7.18734457 20.55852979 -7.10131836 18.36108398 C-7.01589767 16.24079502 -6.90642414 14.1228557 -6.79296875 12.00390625 C-6.7364917 10.73361572 -6.68001465 9.4633252 -6.62182617 8.15454102 C-6 5 -6 5 -4.07543945 3.06225586 C-2 2 -2 2 0 2 C0 1.34 0 0.68 0 0 Z " fill="#FFFFFF" transform="translate(324,401)"/>
<path d="M0 0 C0.66 0.33 1.32 0.66 2 1 C2 1.66 2 2.32 2 3 C2.66 3 3.32 3 4 3 C4 3.66 4 4.32 4 5 C4.66 5 5.32 5 6 5 C6.33 9.29 6.66 13.58 7 18 C7.33 18 7.66 18 8 18 C8.05534912 19.08007324 8.11069824 20.16014648 8.16772461 21.27294922 C8.37385916 25.27254031 8.58581983 29.27180486 8.79956055 33.27099609 C8.89132606 35.00333415 8.98150218 36.73575715 9.07006836 38.46826172 C9.19749861 40.95564326 9.33060438 43.44266531 9.46484375 45.9296875 C9.52272316 47.09538773 9.52272316 47.09538773 9.58177185 48.28463745 C9.73180656 52.27259461 9.73180656 52.27259461 11 56 C11.08400529 57.59447464 11.10727467 59.19240545 11.09765625 60.7890625 C11.09443359 61.73007812 11.09121094 62.67109375 11.08789062 63.640625 C11.07532227 65.11789062 11.07532227 65.11789062 11.0625 66.625 C11.05798828 67.61757813 11.05347656 68.61015625 11.04882812 69.6328125 C11.03702145 72.0886016 11.020554 74.54427104 11 77 C11.66 77 12.32 77 13 77 C13.92463607 100.18229852 14.11249124 123.36218965 14.12338257 146.55981827 C14.12497198 148.77347536 14.12851116 150.98712133 14.13256836 153.20077515 C14.16608121 173.819826 13.77270108 194.39503166 13 215 C12.34 215 11.68 215 11 215 C11.00523682 215.56509277 11.01047363 216.13018555 11.01586914 216.71240234 C11.03662422 219.2665903 11.0496554 221.82076053 11.0625 224.375 C11.07087891 225.26445313 11.07925781 226.15390625 11.08789062 227.0703125 C11.09111328 227.92109375 11.09433594 228.771875 11.09765625 229.6484375 C11.10289307 230.43395996 11.10812988 231.21948242 11.11352539 232.02880859 C11 234 11 234 10 236 C9.78856824 238.09100876 9.63096214 240.18756956 9.5 242.28515625 C9.4175 243.53748047 9.335 244.78980469 9.25 246.08007812 C9.12462853 248.07720653 8.9992636 250.07433556 8.875 252.0715332 C8.75374624 253.99714711 8.6269611 255.92241022 8.5 257.84765625 C8.4278125 259.00273682 8.355625 260.15781738 8.28125 261.34790039 C8 264 8 264 7 265 C6.76712992 266.68183948 6.58735834 268.3712416 6.4375 270.0625 C6.35371094 270.98160156 6.26992188 271.90070313 6.18359375 272.84765625 C6.09271484 273.91306641 6.09271484 273.91306641 6 275 C5.34 275 4.68 275 4 275 C4 275.99 4 276.98 4 278 C3.34 278 2.68 278 2 278 C2 278.66 2 279.32 2 280 C1.01 280 0.02 280 -1 280 C-1 280.66 -1 281.32 -1 282 C-5.38980387 282.30274509 -8.22977592 282.28526818 -12.375 280.75 C-15.95823737 276.99613228 -16.10798882 273.63111018 -16.67578125 268.58203125 C-16.72268104 266.07281908 -16.72268104 266.07281908 -18 265 C-18.23653523 262.47403741 -18.42173692 259.96892793 -18.5625 257.4375 C-18.60568359 256.72658203 -18.64886719 256.01566406 -18.69335938 255.28320312 C-18.79971777 253.52238088 -18.90038846 251.7612168 -19 250 C-19.33 250 -19.66 250 -20 250 C-20.05534912 248.81446533 -20.11069824 247.62893066 -20.16772461 246.4074707 C-20.37451371 241.9997318 -20.58629171 237.59224419 -20.79956055 233.18481445 C-20.89108717 231.27895467 -20.9812694 229.37302983 -21.07006836 227.46704102 C-21.19810368 224.72393785 -21.33100723 221.98110674 -21.46484375 219.23828125 C-21.50343002 218.38913651 -21.5420163 217.53999176 -21.58177185 216.66511536 C-21.62173782 215.86466293 -21.6617038 215.06421051 -21.70288086 214.23950195 C-21.73619003 213.54000931 -21.76949921 212.84051666 -21.80381775 212.11982727 C-21.96700752 209.93171415 -21.96700752 209.93171415 -22.50474548 207.54574585 C-23.00197934 204.98982566 -23.16401645 202.62946638 -23.22119141 200.02856445 C-23.24431396 199.0528801 -23.26743652 198.07719574 -23.29125977 197.07194519 C-23.31115967 196.01308609 -23.33105957 194.95422699 -23.3515625 193.86328125 C-23.37516846 192.73912308 -23.39877441 191.6149649 -23.4230957 190.45674133 C-23.4972935 186.7420876 -23.56228512 183.02736458 -23.625 179.3125 C-23.64745789 178.04388123 -23.66991577 176.77526245 -23.6930542 175.46820068 C-24.03771814 155.17877143 -23.9833692 134.91399988 -23.625 114.625 C-23.60367004 113.35717682 -23.58234009 112.08935364 -23.56036377 110.78311157 C-23.49752747 107.20158856 -23.42667362 103.6203472 -23.3515625 100.0390625 C-23.3316626 98.97504715 -23.3117627 97.9110318 -23.29125977 96.81477356 C-23.26813721 95.83900864 -23.24501465 94.86324371 -23.22119141 93.85791016 C-23.20263092 93.01136871 -23.18407043 92.16482727 -23.16494751 91.29263306 C-23.00518793 89.07210788 -22.54603394 87.15135291 -22 85 C-21.86294645 83.44396193 -21.76719697 81.8839797 -21.70288086 80.32324219 C-21.66291489 79.40258972 -21.62294891 78.48193726 -21.58177185 77.53338623 C-21.52389244 76.05506317 -21.52389244 76.05506317 -21.46484375 74.546875 C-21.42186661 73.53151672 -21.37888947 72.51615845 -21.33460999 71.47003174 C-21.19836675 68.23016906 -21.06786281 64.99010409 -20.9375 61.75 C-20.84608129 59.55206757 -20.75428891 57.35415065 -20.66210938 55.15625 C-20.43707165 49.7710057 -20.21674438 44.38558412 -20 39 C-19.34 39 -18.68 39 -18 39 C-18.00523682 38.39937744 -18.01047363 37.79875488 -18.01586914 37.17993164 C-18.03658014 34.47413162 -18.04964125 31.76834823 -18.0625 29.0625 C-18.07087891 28.11697266 -18.07925781 27.17144531 -18.08789062 26.19726562 C-18.09111328 25.29814453 -18.09433594 24.39902344 -18.09765625 23.47265625 C-18.10289307 22.64000244 -18.10812988 21.80734863 -18.11352539 20.94946289 C-18 19 -18 19 -17 18 C-16.89411987 15.9176908 -16.81541619 13.83397288 -16.75 11.75 C-16.43155095 7.60561306 -16.19200489 5.33920865 -14.125 1.6875 C-9.51307672 -0.80293857 -5.13848121 -0.57921688 0 0 Z " fill="#FFFFFF" transform="translate(391,410)"/>
<path d="M0 0 C0.680625 -0.00257813 1.36125 -0.00515625 2.0625 -0.0078125 C4 0.125 4 0.125 7 1.125 C7.6875 3.1875 7.6875 3.1875 8 5.125 C8.66 5.125 9.32 5.125 10 5.125 C11.46691462 11.09045278 12.33671303 16.80731396 12.75390625 22.9375 C12.76692468 25.09979911 12.76692468 25.09979911 14 26.125 C14.21786137 28.45150224 14.37204527 30.78401288 14.5 33.1171875 C14.54060547 33.81893097 14.58121094 34.52067444 14.62304688 35.24368286 C14.7531284 37.49556285 14.87719156 39.74771238 15 42 C15.12299462 44.24513218 15.2474014 46.49012992 15.37695312 48.7348938 C15.45767088 50.1336613 15.53462325 51.53265225 15.60742188 52.93185425 C15.77754483 55.88256419 16.05932052 58.30296155 17 61.125 C17.13684993 62.86172431 17.2244592 64.60256821 17.28125 66.34375 C17.33732422 67.86548828 17.33732422 67.86548828 17.39453125 69.41796875 C17.46484375 71.55598958 17.53515625 73.69401042 17.60546875 75.83203125 C17.66154297 77.35376953 17.66154297 77.35376953 17.71875 78.90625 C17.74904297 79.83501953 17.77933594 80.76378906 17.81054688 81.72070312 C17.91429135 84.26908653 17.91429135 84.26908653 19 87.125 C19.09665348 89.99000567 19.13640185 92.83050271 19.12939453 95.69555664 C19.13114685 96.57060349 19.13289917 97.44565033 19.13470459 98.34721375 C19.13911038 101.24321468 19.13618982 104.13915468 19.1328125 107.03515625 C19.13348584 109.04389966 19.13445612 111.05264298 19.13571167 113.06138611 C19.13718687 117.27213313 19.13503955 121.48285895 19.13037109 125.69360352 C19.12467025 131.09993455 19.12795619 136.50621598 19.13394356 141.9125452 C19.13755083 146.06026079 19.13640988 150.20796454 19.13381577 154.35568047 C19.13314715 156.34965457 19.13397265 158.34362975 19.13629532 160.33760262 C19.13882495 163.11971015 19.13497699 165.90173643 19.12939453 168.68383789 C19.13141876 169.51350067 19.13344299 170.34316345 19.13552856 171.19796753 C19.11426479 176.89647043 19.11426479 176.89647043 18 179.125 C17.85870728 180.89006652 17.77404859 182.65983849 17.71875 184.4296875 C17.68136719 185.48800781 17.64398438 186.54632812 17.60546875 187.63671875 C17.55326172 189.30154297 17.55326172 189.30154297 17.5 191 C17.43099927 193.18502301 17.35823412 195.3699312 17.28125 197.5546875 C17.25095703 198.52647949 17.22066406 199.49827148 17.18945312 200.49951172 C17 203.125 17 203.125 16.51586914 205.01123047 C15.75162321 208.14272183 15.64700715 211.30861723 15.46484375 214.515625 C15.42186661 215.22023865 15.37888947 215.92485229 15.33460999 216.65081787 C15.19871902 218.89201648 15.06803874 221.13348391 14.9375 223.375 C14.84604719 224.89845819 14.75425414 226.421896 14.66210938 227.9453125 C14.43746393 231.67164695 14.21748929 235.39824025 14 239.125 C13.34 239.125 12.68 239.125 12 239.125 C12.02320313 239.88683594 12.04640625 240.64867187 12.0703125 241.43359375 C12.34756731 257.29652942 12.34756731 257.29652942 8.55078125 261.87109375 C7 263.125 7 263.125 5 263.125 C5 263.785 5 264.445 5 265.125 C1.7 265.125 -1.6 265.125 -5 265.125 C-5 264.465 -5 263.805 -5 263.125 C-6.32 262.795 -7.64 262.465 -9 262.125 C-9.33 260.145 -9.66 258.165 -10 256.125 C-10.66 256.125 -11.32 256.125 -12 256.125 C-12 251.175 -12 246.225 -12 241.125 C-12.66 241.125 -13.32 241.125 -14 241.125 C-14.05534912 240.1055127 -14.11069824 239.08602539 -14.16772461 238.03564453 C-14.37389122 234.2596738 -14.58584299 230.48404635 -14.79956055 226.70849609 C-14.89131433 225.07316756 -14.98149081 223.43774974 -15.07006836 221.80224609 C-15.19752832 219.45384973 -15.33062409 217.10583099 -15.46484375 214.7578125 C-15.50343002 214.02442657 -15.5420163 213.29104065 -15.58177185 212.53543091 C-15.75483425 208.70344911 -15.75483425 208.70344911 -17 205.125 C-17.084915 203.2386088 -17.107193 201.34921485 -17.09765625 199.4609375 C-17.09443359 198.33945312 -17.09121094 197.21796875 -17.08789062 196.0625 C-17.07951172 194.886875 -17.07113281 193.71125 -17.0625 192.5 C-17.05798828 191.31664062 -17.05347656 190.13328125 -17.04882812 188.9140625 C-17.03701467 185.98432493 -17.02054258 183.05468728 -17 180.125 C-17.66 180.125 -18.32 180.125 -19 180.125 C-19 149.105 -19 118.085 -19 86.125 C-18.34 86.125 -17.68 86.125 -17 86.125 C-17.00523682 85.34785645 -17.01047363 84.57071289 -17.01586914 83.77001953 C-17.03660156 80.26335451 -17.04964821 76.75670237 -17.0625 73.25 C-17.07087891 72.02667969 -17.07925781 70.80335938 -17.08789062 69.54296875 C-17.09111328 68.37636719 -17.09433594 67.20976562 -17.09765625 66.0078125 C-17.10289307 64.92902832 -17.10812988 63.85024414 -17.11352539 62.73876953 C-17 60.125 -17 60.125 -16 58.125 C-15.7738218 55.57626718 -15.59921135 53.04603102 -15.46484375 50.4921875 C-15.42186661 49.74035187 -15.37888947 48.98851624 -15.33460999 48.21389771 C-15.19811752 45.8094764 -15.06774024 43.40476729 -14.9375 41 C-14.84610528 39.37107114 -14.7543134 37.7421645 -14.66210938 36.11328125 C-14.4367947 32.117431 -14.21696431 28.121312 -14 24.125 C-13.34 24.125 -12.68 24.125 -12 24.125 C-12.03480469 23.19558594 -12.06960938 22.26617187 -12.10546875 21.30859375 C-12.37434095 9.03009666 -12.37434095 9.03009666 -9 3.125 C-8.34 3.125 -7.68 3.125 -7 3.125 C-7 2.465 -7 1.805 -7 1.125 C-4.32356043 0.23285348 -2.74615622 -0.01040211 0 0 Z M-18 87.125 C-17 89.125 -17 89.125 -17 89.125 Z " fill="#FFFFFF" transform="translate(272,426.875)"/>
<path d="M0 0 C2.596836 2.60238479 2.60852624 4.78707195 3.015625 8.39453125 C3.4160332 12.76316834 3.4160332 12.76316834 4.828125 16.83203125 C4.89808514 18.5390586 4.91252654 20.24871128 4.890625 21.95703125 C4.88160156 22.86710937 4.87257812 23.7771875 4.86328125 24.71484375 C4.85167969 25.41351563 4.84007812 26.1121875 4.828125 26.83203125 C5.488125 26.83203125 6.148125 26.83203125 6.828125 26.83203125 C6.828125 31.12203125 6.828125 35.41203125 6.828125 39.83203125 C7.488125 39.83203125 8.148125 39.83203125 8.828125 39.83203125 C8.81652344 40.81945312 8.80492187 41.806875 8.79296875 42.82421875 C8.78394531 44.10554687 8.77492187 45.386875 8.765625 46.70703125 C8.75402344 47.98320313 8.74242187 49.259375 8.73046875 50.57421875 C8.59635931 53.71867777 8.59635931 53.71867777 9.828125 55.83203125 C9.92508512 57.94206149 9.9560939 60.05522413 9.95751953 62.16748047 C9.95927185 62.81839661 9.96102417 63.46931274 9.96282959 64.13995361 C9.9672498 66.30556873 9.96430344 68.4711027 9.9609375 70.63671875 C9.96161195 72.15536515 9.96258315 73.67401144 9.96383667 75.19265747 C9.96531504 78.3922833 9.96315999 81.59188131 9.95849609 84.79150391 C9.95288475 88.83247023 9.95611809 92.87336951 9.96193314 96.91433334 C9.99681774 125.3761887 9.99681774 125.3761887 9.3828125 138.02734375 C9.34407013 138.8342868 9.30532776 139.64122986 9.26541138 140.47262573 C8.96188267 145.69827358 8.96188267 145.69827358 7.828125 146.83203125 C7.59158977 149.35799384 7.40638808 151.86310332 7.265625 154.39453125 C7.20084961 155.4609082 7.20084961 155.4609082 7.13476562 156.54882812 C7.02840723 158.30965037 6.92773654 160.07081445 6.828125 161.83203125 C6.168125 161.83203125 5.508125 161.83203125 4.828125 161.83203125 C4.83972656 162.83105469 4.85132813 163.83007812 4.86328125 164.859375 C4.87230469 166.14972656 4.88132813 167.44007813 4.890625 168.76953125 C4.90222656 170.05730469 4.91382813 171.34507812 4.92578125 172.671875 C4.828125 175.83203125 4.828125 175.83203125 3.828125 176.83203125 C3.60241316 178.24324027 3.43424151 179.66379168 3.29296875 181.0859375 C3.20595703 181.93994141 3.11894531 182.79394531 3.02929688 183.67382812 C2.94228516 184.57166016 2.85527344 185.46949219 2.765625 186.39453125 C2.67474609 187.29623047 2.58386719 188.19792969 2.49023438 189.12695312 C2.26558577 191.36161559 2.04506731 193.59660964 1.828125 195.83203125 C1.168125 195.83203125 0.508125 195.83203125 -0.171875 195.83203125 C-0.171875 196.49203125 -0.171875 197.15203125 -0.171875 197.83203125 C-0.831875 197.83203125 -1.491875 197.83203125 -2.171875 197.83203125 C-2.171875 198.49203125 -2.171875 199.15203125 -2.171875 199.83203125 C-3.75316529 200.05534324 -5.33708589 200.26007769 -6.921875 200.45703125 C-7.80359375 200.57304688 -8.6853125 200.6890625 -9.59375 200.80859375 C-13.66852179 200.84563713 -15.8394026 199.05367952 -19.171875 196.83203125 C-19.859375 194.20703125 -19.859375 194.20703125 -20.171875 191.83203125 C-20.501875 191.83203125 -20.831875 191.83203125 -21.171875 191.83203125 C-21.22722412 190.99430176 -21.28257324 190.15657227 -21.33959961 189.29345703 C-21.54679047 186.18839684 -21.75780771 183.08362735 -21.97143555 179.97900391 C-22.0631438 178.63470697 -22.15332165 177.29030472 -22.24194336 175.94580078 C-22.36951699 174.01437883 -22.50303354 172.08335231 -22.63671875 170.15234375 C-22.715271 168.98977051 -22.79382324 167.82719727 -22.87475586 166.62939453 C-23.00156126 163.88078971 -23.00156126 163.88078971 -24.171875 161.83203125 C-24.24382369 158.94832792 -24.26479208 156.08963461 -24.234375 153.20703125 C-24.22986328 152.40523437 -24.22535156 151.6034375 -24.22070312 150.77734375 C-24.20890668 148.79554119 -24.19097105 146.81377692 -24.171875 144.83203125 C-24.831875 144.83203125 -25.491875 144.83203125 -26.171875 144.83203125 C-26.953584 127.95197761 -27.33241472 111.10616513 -27.30224609 94.20825195 C-27.29686144 90.63553663 -27.3022492 87.06294607 -27.30859375 83.49023438 C-27.31234595 68.91255472 -26.95476466 54.38891074 -26.171875 39.83203125 C-25.841875 39.83203125 -25.511875 39.83203125 -25.171875 39.83203125 C-24.841875 34.88203125 -24.511875 29.93203125 -24.171875 24.83203125 C-23.511875 24.83203125 -22.851875 24.83203125 -22.171875 24.83203125 C-22.18347656 24.21457031 -22.19507813 23.59710938 -22.20703125 22.9609375 C-22.38160694 6.57576209 -22.38160694 6.57576209 -19.171875 0.83203125 C-13.46282067 -4.68015913 -6.51151627 -3.5016967 0 0 Z " fill="#FFFFFF" transform="translate(166.171875,482.16796875)"/>
<path d="M0 0 C0.90492188 0.02320313 1.80984375 0.04640625 2.7421875 0.0703125 C3.65226562 0.08835937 4.56234375 0.10640625 5.5 0.125 C6.19867188 0.14820313 6.89734375 0.17140625 7.6171875 0.1953125 C7.6171875 0.8553125 7.6171875 1.5153125 7.6171875 2.1953125 C8.6071875 2.1953125 9.5971875 2.1953125 10.6171875 2.1953125 C14.53836325 6.80846044 15.12519937 10.38985252 15.6171875 16.1953125 C15.9471875 16.5253125 16.2771875 16.8553125 16.6171875 17.1953125 C16.83040478 18.52199782 16.98716213 19.85790869 17.1171875 21.1953125 C17.1996875 21.9996875 17.2821875 22.8040625 17.3671875 23.6328125 C17.53385417 25.34114583 17.70052083 27.04947917 17.8671875 28.7578125 C17.9496875 29.5621875 18.0321875 30.3665625 18.1171875 31.1953125 C18.22546875 32.3090625 18.22546875 32.3090625 18.3359375 33.4453125 C18.4457023 35.21914251 18.4457023 35.21914251 19.6171875 36.1953125 C19.68990491 38.54844805 19.70089618 40.90364918 19.6796875 43.2578125 C19.67066406 44.54816406 19.66164062 45.83851563 19.65234375 47.16796875 C19.64074219 48.16699219 19.62914062 49.16601562 19.6171875 50.1953125 C20.2771875 50.1953125 20.9371875 50.1953125 21.6171875 50.1953125 C22.89651586 77.92883763 22.61903219 105.4660633 21.6171875 133.1953125 C21.2871875 133.1953125 20.9571875 133.1953125 20.6171875 133.1953125 C20.55660156 134.32710937 20.49601562 135.45890625 20.43359375 136.625 C20.34918833 138.10678395 20.26454033 139.5885541 20.1796875 141.0703125 C20.14037109 141.81667969 20.10105469 142.56304688 20.06054688 143.33203125 C19.73046875 148.96875 19.73046875 148.96875 18.6171875 151.1953125 C18.40662445 153.14027901 18.2485762 155.09105468 18.1171875 157.04296875 C18.0346875 158.20505859 17.9521875 159.36714844 17.8671875 160.56445312 C17.70025763 163.03058116 17.53359179 165.49672707 17.3671875 167.96289062 C17.2846875 169.12369141 17.2021875 170.28449219 17.1171875 171.48046875 C17.045 172.55176025 16.9728125 173.62305176 16.8984375 174.72680664 C16.6171875 177.1953125 16.6171875 177.1953125 15.6171875 178.1953125 C15.38290972 180.21125832 15.20382626 182.2337865 15.0546875 184.2578125 C14.92900391 185.91490234 14.92900391 185.91490234 14.80078125 187.60546875 C14.70990234 188.88744141 14.70990234 188.88744141 14.6171875 190.1953125 C13.9571875 190.1953125 13.2971875 190.1953125 12.6171875 190.1953125 C12.64039063 190.81019531 12.66359375 191.42507813 12.6875 192.05859375 C12.70554688 192.86683594 12.72359375 193.67507813 12.7421875 194.5078125 C12.76539063 195.30832031 12.78859375 196.10882812 12.8125 196.93359375 C12.6171875 199.1953125 12.6171875 199.1953125 10.6171875 202.1953125 C9.9571875 202.1953125 9.2971875 202.1953125 8.6171875 202.1953125 C8.6171875 202.8553125 8.6171875 203.5153125 8.6171875 204.1953125 C5.11571709 205.3624693 2.29048714 205.32888703 -1.3828125 205.1953125 C-2.0428125 204.8653125 -2.7028125 204.5353125 -3.3828125 204.1953125 C-3.3828125 203.5353125 -3.3828125 202.8753125 -3.3828125 202.1953125 C-4.3728125 202.1953125 -5.3628125 202.1953125 -6.3828125 202.1953125 C-7.66764846 198.34080462 -7.80492998 194.63007111 -8.1015625 190.59375 C-8.12566843 188.24580959 -8.12566843 188.24580959 -9.3828125 187.1953125 C-9.45594817 184.66481848 -9.47528777 182.16226413 -9.4453125 179.6328125 C-9.44080078 178.92189453 -9.43628906 178.21097656 -9.43164062 177.47851562 C-9.41982114 175.71741237 -9.40188513 173.95635214 -9.3828125 172.1953125 C-10.0428125 172.1953125 -10.7028125 172.1953125 -11.3828125 172.1953125 C-11.44339844 170.90753906 -11.50398437 169.61976563 -11.56640625 168.29296875 C-11.65079497 166.61457091 -11.7354438 164.93618614 -11.8203125 163.2578125 C-11.87928711 161.98260742 -11.87928711 161.98260742 -11.93945312 160.68164062 C-11.98134766 159.87275391 -12.02324219 159.06386719 -12.06640625 158.23046875 C-12.10306396 157.481604 -12.13972168 156.73273926 -12.17749023 155.96118164 C-12.20052313 154.17069924 -12.20052313 154.17069924 -13.3828125 153.1953125 C-13.60281139 150.09336633 -13.76267579 147.00864566 -13.8828125 143.90234375 C-13.9437207 142.49416634 -13.9437207 142.49416634 -14.00585938 141.05754089 C-14.13600966 138.04113593 -14.25998496 135.02452393 -14.3828125 132.0078125 C-14.50598983 129.00897375 -14.63060517 126.01022977 -14.75976562 123.01164246 C-14.84017765 121.14306991 -14.91714837 119.27434523 -14.99023438 117.4054718 C-15.18289173 112.91021283 -15.6310547 108.63583885 -16.3828125 104.1953125 C-16.47243932 101.84895004 -16.51342951 99.50041635 -16.515625 97.15234375 C-16.51658173 96.50206711 -16.51753845 95.85179047 -16.51852417 95.18180847 C-16.51920033 93.81790062 -16.51738568 92.45398944 -16.51318359 91.09008789 C-16.50780098 89.00334496 -16.51316103 86.91681468 -16.51953125 84.83007812 C-16.51759766 82.85491211 -16.51759766 82.85491211 -16.515625 80.83984375 C-16.51449707 79.63690674 -16.51336914 78.43396973 -16.51220703 77.19458008 C-16.3828125 74.1953125 -16.3828125 74.1953125 -15.3828125 71.1953125 C-15.17211533 68.40759873 -15.00796771 65.63538679 -14.8828125 62.84375 C-14.84220703 62.02911285 -14.80160156 61.21447571 -14.75976562 60.37515259 C-14.5859744 56.88842438 -14.42191583 53.40125828 -14.2578125 49.9140625 C-14.13664704 47.36958785 -14.00992551 44.82543333 -13.8828125 42.28125 C-13.82963867 41.08911392 -13.82963867 41.08911392 -13.77539062 39.87289429 C-13.49572754 34.30822754 -13.49572754 34.30822754 -12.3828125 33.1953125 C-12.14994242 31.51347302 -11.97017084 29.8240709 -11.8203125 28.1328125 C-11.73652344 27.21371094 -11.65273437 26.29460938 -11.56640625 25.34765625 C-11.50582031 24.63738281 -11.44523438 23.92710937 -11.3828125 23.1953125 C-10.7228125 23.1953125 -10.0628125 23.1953125 -9.3828125 23.1953125 C-9.3828125 20.2253125 -9.3828125 17.2553125 -9.3828125 14.1953125 C-8.7228125 14.1953125 -8.0628125 14.1953125 -7.3828125 14.1953125 C-7.4034375 13.1021875 -7.4240625 12.0090625 -7.4453125 10.8828125 C-7.3828125 7.1953125 -7.3828125 7.1953125 -6.3828125 4.1953125 C-5.7228125 4.1953125 -5.0628125 4.1953125 -4.3828125 4.1953125 C-4.3828125 3.5353125 -4.3828125 2.8753125 -4.3828125 2.1953125 C-2.3828125 0.1953125 -2.3828125 0.1953125 0 0 Z " fill="#FFFFFF" transform="translate(211.3828125,487.8046875)"/>
<path d="M0 0 C2.8644432 3.71316711 3.32332002 6.36574638 3 11 C3.66 11 4.32 11 5 11 C6.53271191 15.94443886 7.45019528 20.65164591 8.0625 25.8125 C8.48832929 30.56499352 8.48832929 30.56499352 10 35 C10.07065617 37.04055005 10.08421976 39.08334257 10.0625 41.125 C10.05347656 42.22070312 10.04445312 43.31640625 10.03515625 44.4453125 C10.02355469 45.28835938 10.01195312 46.13140625 10 47 C10.66 47 11.32 47 12 47 C12 56.57 12 66.14 12 76 C11.34 76 10.68 76 10 76 C10 81.61 10 87.22 10 93 C9.34 93 8.68 93 8 93 C8.01160156 93.68964844 8.02320313 94.37929688 8.03515625 95.08984375 C8.09342124 101.15772652 7.78903948 106.98357396 7 113 C6.34 113 5.68 113 5 113 C5 115.97 5 118.94 5 122 C4.34 122 3.68 122 3 122 C3 124.64 3 127.28 3 130 C2.34 130 1.68 130 1 130 C1.33 131.65 1.66 133.3 2 135 C1.34 135 0.68 135 0 135 C0 135.66 0 136.32 0 137 C-0.66 137 -1.32 137 -2 137 C-2 137.66 -2 138.32 -2 139 C-2.66 139 -3.32 139 -4 139 C-4 139.66 -4 140.32 -4 141 C-6.64 141 -9.28 141 -12 141 C-12 140.34 -12 139.68 -12 139 C-12.99 139 -13.98 139 -15 139 C-15 138.34 -15 137.68 -15 137 C-15.66 137 -16.32 137 -17 137 C-17 136.01 -17 135.02 -17 134 C-17.66 134 -18.32 134 -19 134 C-19 131.03 -19 128.06 -19 125 C-19.66 125 -20.32 125 -21 125 C-21.08302368 124.15236084 -21.08302368 124.15236084 -21.16772461 123.28759766 C-21.42024372 120.73297668 -21.67879723 118.17900185 -21.9375 115.625 C-22.06801758 114.29082031 -22.06801758 114.29082031 -22.20117188 112.9296875 C-22.28818359 112.07890625 -22.37519531 111.228125 -22.46484375 110.3515625 C-22.543396 109.56604004 -22.62194824 108.78051758 -22.70288086 107.97119141 C-22.90696298 105.92865197 -22.90696298 105.92865197 -24 104 C-25.18106576 95.92504817 -25.14680975 87.76652328 -25.1328125 79.625 C-25.13376923 78.37928223 -25.13472595 77.13356445 -25.13571167 75.85009766 C-25.1363884 73.23144479 -25.13456972 70.61279021 -25.13037109 67.99414062 C-25.12501571 64.01168001 -25.13033346 60.02933216 -25.13671875 56.046875 C-25.13605788 53.48958309 -25.13477653 50.93229124 -25.1328125 48.375 C-25.13483673 47.19760254 -25.13686096 46.02020508 -25.13894653 44.80712891 C-25.11935874 37.81710444 -24.76833671 30.94843637 -24 24 C-23.34 24 -22.68 24 -22 24 C-22.020625 22.824375 -22.04125 21.64875 -22.0625 20.4375 C-22.06947261 16.52586533 -21.64250343 12.85502056 -21 9 C-20.34 9 -19.68 9 -19 9 C-19.103125 8.278125 -19.20625 7.55625 -19.3125 6.8125 C-18.8670035 2.8030315 -17.05765894 1.50172095 -14 -1 C-9.58355622 -3.0610071 -4.42403662 -1.47467887 0 0 Z M10 48 C11 50 11 50 11 50 Z " fill="#FFFFFF" transform="translate(108,512)"/>
<path d="" fill="#FFFFFF" transform="translate(0,0)"/>
</svg>

