<?xml version="1.0" encoding="UTF-8"?>
<svg version="1.1" xmlns="http://www.w3.org/2000/svg" width="512" height="512">
<path d="M0 0 C2.58078713 2.01573058 4.4422591 4.11529463 6 7 C6.375 10.9375 6.375 10.9375 6 14 C6.99 13.855625 7.98 13.71125 9 13.5625 C13.56820652 13.58114574 16.18494164 15.78237486 19.37109375 18.875 C21.60636169 21.791033 22.39947774 24.0520639 22.5 27.71484375 C21.51113275 32.23427612 18.59127276 35.23964917 15 38 C11.5625 39 11.5625 39 9 39 C9.4021875 39.8353125 9.4021875 39.8353125 9.8125 40.6875 C9.9053125 41.8321875 9.9053125 41.8321875 10 43 C8.38481721 44.71660715 6.71928551 46.38766849 5 48 C5.99813721 47.86424561 6.99627441 47.72849121 8.0246582 47.58862305 C58.21697604 40.79933496 108.14086541 37.62321262 158.79614258 37.73925781 C163.80007346 37.75062784 168.80379089 37.74387006 173.80771446 37.73238182 C209.03481683 37.66384621 244.14283153 38.88475443 279.25 41.875 C280.25790588 41.95826538 281.26581177 42.04153076 282.30426025 42.12731934 C298.51097192 43.47050287 314.60515793 45.23734165 330.68310547 47.69628906 C333.10630611 48.06498671 333.10630611 48.06498671 336 48 C335.38890381 47.41508789 334.77780762 46.83017578 334.14819336 46.22753906 C331.88883643 44.05334732 329.6409135 41.86813802 327.40014648 39.67480469 C326.42769895 38.72751645 325.45081335 37.78476221 324.46948242 36.84667969 C323.06053683 35.49831092 321.66865627 34.13218107 320.27734375 32.765625 C319.43421631 31.94868164 318.59108887 31.13173828 317.72241211 30.29003906 C316 28 316 28 316.05981445 25.90649414 C317.78738316 22.40335625 320.51705411 19.92941617 323.25 17.1875 C323.82363281 16.57712891 324.39726562 15.96675781 324.98828125 15.33789062 C326.59751888 13.71215739 328.09341917 12.26509823 330 11 C332.921875 11.11328125 332.921875 11.11328125 335 12 C334.67 11.01 334.34 10.02 334 9 C336.1341404 4.49459248 339.34705273 0.32647364 343.875 -1.9375 C348.06389866 -2.0607029 351.48990043 -1.22592328 354.78515625 1.44921875 C357.87352558 4.69821249 358.93894231 6.35889421 359.375 10.9375 C359.25125 11.948125 359.1275 12.95875 359 14 C360.485 13.7834375 360.485 13.7834375 362 13.5625 C366.56820652 13.58114574 369.18494164 15.78237486 372.37109375 18.875 C374.60636169 21.791033 375.39947774 24.0520639 375.5 27.71484375 C374.51113275 32.23427612 371.59127276 35.23964917 368 38 C364.5625 39 364.5625 39 362 39 C362.21712646 39.59780273 362.43425293 40.19560547 362.65795898 40.81152344 C362.77083252 41.5337207 362.88370605 42.25591797 363 43 C361.08065216 45.29016466 359.23652142 47.23281698 357.0625 49.25 C356.1972168 50.08144531 356.1972168 50.08144531 355.31445312 50.9296875 C353.88722271 52.29794145 352.44497942 53.6505038 351 55 C351.64066406 55.49628906 352.28132813 55.99257812 352.94140625 56.50390625 C371.02843981 70.70937076 377.09530266 84.92325049 380.5625 107.625 C380.77439491 108.97721654 380.98630934 110.32943003 381.19824219 111.68164062 C390.75644946 173.56437793 388.7047441 235.24732644 379.86587524 297.06082153 C379.66793097 298.44842267 379.47434607 299.83665472 379.28573608 301.22555542 C377.11770374 316.9782331 371.71494752 330.7134274 359.375 341.25 C351.04654709 347.43612636 342.22838318 351.76627839 332.12109375 354.04296875 C331.38672089 354.2113475 330.65234802 354.37972626 329.89572144 354.5532074 C321.86642234 356.33681392 313.77742626 357.50949552 305.625 358.5625 C304.83486511 358.66672272 304.04473022 358.77094543 303.23065186 358.87832642 C259.64815324 364.60401501 215.81813389 366.3635164 171.89355469 366.26074219 C166.98362248 366.24934882 162.07390725 366.25614396 157.16398239 366.26761913 C124.27977461 366.33275534 91.49948483 365.29894927 58.75 362.1875 C57.86203735 362.10584595 56.97407471 362.02419189 56.0592041 361.94006348 C37.94586813 360.26650094 19.96676589 357.82584085 2 355 C2.65484375 355.74636719 3.3096875 356.49273437 3.984375 357.26171875 C6.522783 360.71021489 6.32815977 362.8159629 6 367 C6.99 366.855625 7.98 366.71125 9 366.5625 C13.56820652 366.58114574 16.18494164 368.78237486 19.37109375 371.875 C21.60636169 374.791033 22.39947774 377.0520639 22.5 380.71484375 C21.51113275 385.23427612 18.59127276 388.23964917 15 391 C11.5625 392 11.5625 392 9 392 C9.23066162 392.58426758 9.46132324 393.16853516 9.69897461 393.77050781 C10 396 10 396 8.73657227 397.83105469 C8.10291748 398.43852539 7.4692627 399.04599609 6.81640625 399.671875 C6.13642578 400.33574219 5.45644531 400.99960937 4.75585938 401.68359375 C4.03205078 402.36550781 3.30824219 403.04742187 2.5625 403.75 C1.48258789 404.79607422 1.48258789 404.79607422 0.38085938 405.86328125 C-1.40211461 407.58721636 -3.19567826 409.29846609 -5 411 C-7.77960675 409.72669411 -9.85743296 408.40171491 -12.0402832 406.26611328 C-12.60378983 405.71859406 -13.16729645 405.17107483 -13.74787903 404.60696411 C-14.34283676 404.01736908 -14.93779449 403.42777405 -15.55078125 402.8203125 C-16.16898239 402.21113983 -16.78718353 401.60196716 -17.42411804 400.97433472 C-18.72531842 399.68761328 -20.02374974 398.39808637 -21.31958008 397.10595703 C-23.31076886 395.12672074 -25.31984808 393.16690114 -27.33007812 391.20703125 C-28.59229029 389.95427704 -29.85339726 388.7004081 -31.11328125 387.4453125 C-31.71836014 386.85976593 -32.32343903 386.27421936 -32.94685364 385.67092896 C-34.60668945 383.99267578 -34.60668945 383.99267578 -37 381 C-36.35881557 376.11999914 -33.08582437 373.53427347 -29.75 370.1875 C-29.17636719 369.57712891 -28.60273437 368.96675781 -28.01171875 368.33789062 C-26.40248112 366.71215739 -24.90658083 365.26509823 -23 364 C-20.078125 364.11328125 -20.078125 364.11328125 -18 365 C-18.165 364.175 -18.33 363.35 -18.5 362.5 C-17.72705153 357.08936074 -13.97854321 354.49898666 -10 351 C-10.75023437 350.67128906 -11.50046875 350.34257812 -12.2734375 350.00390625 C-20.07754924 346.37705835 -25.97391661 342.12024094 -32 336 C-32.66 335.33871094 -33.32 334.67742187 -34 333.99609375 C-41.48673779 326.00916443 -44.69328788 316.99562571 -46.625 306.375 C-46.93401245 304.74800171 -46.93401245 304.74800171 -47.24926758 303.08813477 C-50.78817269 283.89023452 -52.6810339 264.46464226 -54 245 C-54.08894531 243.69119873 -54.08894531 243.69119873 -54.1796875 242.35595703 C-56.68649714 203.07514526 -55.25676969 163.35779305 -51.0625 124.25 C-50.98318237 123.50561676 -50.90386475 122.76123352 -50.82214355 121.99429321 C-49.92815434 113.73846615 -48.83378045 105.52604905 -47.5078125 97.328125 C-47.33276939 96.22189789 -47.33276939 96.22189789 -47.15419006 95.09332275 C-44.71501903 80.55029351 -36.96676865 68.64383465 -25 60 C-15.19512195 54 -15.19512195 54 -12 54 C-15.697323 49.60000468 -19.52195132 45.4167771 -23.65625 41.421875 C-24.4503125 40.65359375 -25.244375 39.8853125 -26.0625 39.09375 C-27.71156103 37.50811439 -29.36805068 35.93017435 -31.03125 34.359375 C-31.815 33.59625 -32.59875 32.833125 -33.40625 32.046875 C-34.12103516 31.36463867 -34.83582031 30.68240234 -35.57226562 29.97949219 C-37 28 -37 28 -36.89746094 25.95141602 C-35.25948998 22.38985403 -32.4884611 19.93494948 -29.75 17.1875 C-29.17636719 16.57712891 -28.60273437 15.96675781 -28.01171875 15.33789062 C-26.40248112 13.71215739 -24.90658083 12.26509823 -23 11 C-20.078125 11.11328125 -20.078125 11.11328125 -18 12 C-18.495 10.515 -18.495 10.515 -19 9 C-17.06912329 4.92370473 -14.33466021 2.00119419 -11 -1 C-6.93615709 -2.3546143 -3.82641553 -1.69342307 0 0 Z M-8 23 C-6.35 24.65 -4.7 26.3 -3 28 C-2.67 27.34 -2.34 26.68 -2 26 C-2.33 25.01 -2.66 24.02 -3 23 C-4.65 23 -6.3 23 -8 23 Z M345 23 C346.65 24.65 348.3 26.3 350 28 C350.33 27.34 350.66 26.68 351 26 C350.67 25.01 350.34 24.02 350 23 C348.35 23 346.7 23 345 23 Z M43 65 C46.84904827 69.59945023 50.83304404 73.97870843 55.08129883 78.21069336 C55.65602936 78.78717621 56.23075989 79.36365906 56.82290649 79.95761108 C58.698463 81.83752297 60.57759815 83.7138081 62.45703125 85.58984375 C63.76900087 86.90248767 65.08082207 88.21527994 66.39250183 89.5282135 C69.12845509 92.26563468 71.86619328 95.00125451 74.60522461 97.7355957 C78.12388618 101.24852655 81.63799387 104.76597338 85.15080738 108.28475094 C87.85205628 110.98960112 90.55566711 113.69208028 93.26001549 116.39383125 C94.55779199 117.69093903 95.85482155 118.98879457 97.15110207 120.28739738 C98.95355896 122.09237733 100.75916117 123.89414892 102.56567383 125.69506836 C103.10434586 126.23576462 103.64301788 126.77646088 104.19801331 127.33354187 C106.25152796 129.86763177 106.25152796 129.86763177 109 131 C109 127.37 109 123.74 109 120 C125.94300705 129.22374492 142.84801761 138.50880698 159.5 148.25 C160.47646484 148.81984619 161.45292969 149.38969238 162.45898438 149.97680664 C167.17499471 152.73560926 171.87160323 155.52169009 176.54296875 158.35546875 C177.41308594 158.87657227 178.28320312 159.39767578 179.1796875 159.93457031 C180.80295061 160.90739037 182.4193915 161.89172482 184.02734375 162.88964844 C188.16051402 165.42064477 188.16051402 165.42064477 192.875 165.8515625 C194.98854665 165.00458976 197.00908179 164.10606567 199 163 C198.525625 162.2575 198.05125 161.515 197.5625 160.75 C195.81321197 157.67125307 194.62730317 155.52656622 195.48828125 152 C196.31460836 149.99488397 197.1417291 147.99168127 198 146 C198.28875 145.236875 198.5775 144.47375 198.875 143.6875 C202.27702392 138.58446412 208.91557842 137.69399486 214.5 136.4375 C218.6833239 137.37874788 221.56862155 140.55262768 224 144 C224 145.32 224 146.64 224 148 C224.721875 148.103125 225.44375 148.20625 226.1875 148.3125 C230.11586348 149.27276663 232.81548292 150.93801917 235.8125 153.625 C238.16095942 158.32191885 237.56382757 163.23803884 236 168.125 C232.09146941 173.74351272 227.81703463 177.9214087 221 179.4375 C219.67055644 179.65083976 218.33787372 179.84825043 217 180 C219.49225308 182.80246801 222.24581135 184.40833309 225.515625 186.21484375 C226.60230469 186.81876953 227.68898438 187.42269531 228.80859375 188.04492188 C229.94425781 188.66947266 231.07992187 189.29402344 232.25 189.9375 C234.48447982 191.1755921 236.71885755 192.41386846 238.953125 193.65234375 C240.00048828 194.23097168 241.04785156 194.80959961 242.12695312 195.40576172 C245.43527989 197.24153447 248.72234142 199.11013617 252 201 C252 201.66 252 202.32 252 203 C251.27111572 203.40202637 250.54223145 203.80405273 249.79125977 204.21826172 C241.51398309 208.78813724 233.2518006 213.38430939 225 218 C224.02740234 218.54237305 223.05480469 219.08474609 222.05273438 219.64355469 C219.6317705 220.99961797 217.22034636 222.37081797 214.8125 223.75 C214.10746338 224.14300293 213.40242676 224.53600586 212.67602539 224.94091797 C210.58116173 226.11858737 210.58116173 226.11858737 208 228 C208 231.9425048 209.16111903 232.57282291 211.87181091 235.36715698 C212.73072937 236.25910263 213.58964783 237.15104828 214.47459412 238.07002258 C215.43914032 239.05585007 216.40391557 240.04145349 217.36889648 241.02685547 C218.37629513 242.06613923 219.38316957 243.10593135 220.38955688 244.14619446 C223.7042415 247.56547259 227.0359761 250.96785074 230.37109375 254.3671875 C230.93868322 254.94596602 231.50627268 255.52474454 232.09106183 256.1210618 C237.44761935 261.5812758 242.81123813 267.03447532 248.19009304 272.47273064 C255.0642529 279.4238683 261.90313824 286.40604104 268.69785446 293.43487823 C273.48080466 298.3769301 278.30175584 303.27983682 283.1520353 308.1558162 C286.04645113 311.06767086 288.92165454 313.99383065 291.75701714 316.96331406 C303.09787523 330.23027082 303.09787523 330.23027082 318.07913208 336.80987549 C322.51350104 336.3769646 326.01648317 334.95562099 330 333 C331.74868629 332.28854324 331.74868629 332.28854324 333.53269958 331.56271362 C341.75871874 328.09684237 350.64602156 322.13537903 354.16210938 313.58618164 C357.93117687 301.95280986 358.9630661 289.03755561 360.5 276.9375 C360.6590834 275.68768845 360.6590834 275.68768845 360.82138062 274.41262817 C374.31236552 176.47522216 374.31236552 176.47522216 350.61328125 84.8984375 C341.54208158 74.22385387 328.6699267 69.46228783 315 68 C311.80963194 68.49069032 310.19820902 69.4284676 307.93743896 71.70179749 C307.35977783 72.27533463 306.7821167 72.84887177 306.18695068 73.43978882 C305.56548157 74.07204376 304.94401245 74.70429871 304.30371094 75.35571289 C303.63988403 76.01910172 302.97605713 76.68249054 302.29211426 77.36598206 C300.09901588 79.56117097 297.91673542 81.7667961 295.734375 83.97265625 C294.21616983 85.4964564 292.6973011 87.01959569 291.17779541 88.542099 C287.17957685 92.5517739 283.19044889 96.57037626 279.203125 100.59088135 C275.13303899 104.69165098 271.05445107 108.78394505 266.9765625 112.87695312 C258.97601415 120.90967959 250.9850404 128.95185956 243 137 C241.68 136.34 240.36 135.68 239 135 C239 131.17289142 240.4628384 130.18380239 243.06152344 127.56521606 C243.6599707 126.97755463 244.25841797 126.38989319 244.875 125.78442383 C245.49922852 125.15975723 246.12345703 124.53509064 246.76660156 123.89149475 C248.83737129 121.82281966 250.91857454 119.76498011 253 117.70703125 C254.43554761 116.27707717 255.87043551 114.84646051 257.3046875 113.41520691 C261.08586994 109.64549226 264.87597431 105.884872 268.66796875 102.1260376 C272.53404528 98.29062012 276.39166891 94.44672194 280.25 90.60351562 C287.82505635 83.06065757 295.40955945 75.52737438 303 68 C299.29038951 65.52692634 296.0342804 65.38473213 291.71484375 65 C290.46142181 64.87906731 290.46142181 64.87906731 289.18267822 64.75569153 C286.43509288 64.4941364 283.68649611 64.24625528 280.9375 64 C279.99572906 63.91317963 279.05395813 63.82635925 278.08364868 63.73690796 C265.46357837 62.57412326 252.83946402 61.55492102 240.1875 60.8125 C238.97376709 60.74095703 237.76003418 60.66941406 236.50952148 60.59570312 C213.22877886 59.33554863 189.9380308 58.7932491 166.625 58.8125 C165.36395447 58.81277191 164.10290894 58.81304382 162.8036499 58.81332397 C122.8270278 58.85248664 82.73161757 60.33353485 43 65 Z M25.36962891 67.24023438 C8.88025008 69.44572306 -8.62908464 72.55820075 -20 86 C-24.23294678 92.76624882 -26.04245619 99.41508119 -27.125 107.25 C-27.28331299 108.313396 -27.44162598 109.37679199 -27.60473633 110.47241211 C-29.53357179 123.92378249 -30.87963372 137.45933753 -32 151 C-32.09716309 152.10287354 -32.19432617 153.20574707 -32.29443359 154.34204102 C-33.42045893 169.13097884 -33.24456824 183.98918435 -33.25 198.8125 C-33.25058914 199.54773643 -33.25117828 200.28297287 -33.25178528 201.0404892 C-33.26447219 223.47438135 -33.00756521 245.72939294 -30 268 C-29.85014648 269.12229004 -29.70029297 270.24458008 -29.54589844 271.40087891 C-28.58393492 278.31537461 -27.40515332 285.16224686 -26 292 C-25.71769531 293.38638672 -25.71769531 293.38638672 -25.4296875 294.80078125 C-22.64178221 309.00192886 -22.64178221 309.00192886 -15 321 C-14.12214844 321.94166016 -14.12214844 321.94166016 -13.2265625 322.90234375 C-4.87134103 330.96769019 5.73892432 333.79697631 16.875 335.875 C17.97585937 336.09929687 19.07671875 336.32359375 20.2109375 336.5546875 C27.13586707 338.03981637 27.13586707 338.03981637 34 337 C36.29980581 335.06517694 38.35309207 333.1527775 40.44262695 331.01147461 C41.0675856 330.38710007 41.69254425 329.76272552 42.33644104 329.11943054 C44.39667925 327.056409 46.44239321 324.97958895 48.48828125 322.90234375 C49.91515663 321.46800692 51.3429186 320.03455157 52.77153015 318.60194397 C56.52702666 314.83118378 60.2703558 311.04856557 64.0112915 307.2633667 C67.83164272 303.40207917 71.66335944 299.5521071 75.49414062 295.70117188 C83.00727179 288.1451568 90.50759971 280.57656795 98 273 C99.32 273.66 100.64 274.32 102 275 C102 278.73258988 100.72810069 279.62444563 98.19232178 282.18093872 C97.63127747 282.7311972 97.07023315 283.28145569 96.4921875 283.84838867 C95.90697327 284.43404099 95.32175903 285.0196933 94.71881104 285.62309265 C92.77789868 287.56191084 90.82656734 289.48988079 88.875 291.41796875 C87.52913337 292.75824168 86.18392648 294.09917741 84.83935547 295.44075012 C81.29490602 298.9737331 77.74154036 302.49761582 74.1862793 306.01971436 C70.56149445 309.61383729 66.94516413 313.21644441 63.328125 316.81835938 C56.2270256 323.88726282 49.1164834 330.94658672 42 338 C42.33 338.66 42.66 339.32 43 340 C45.5636051 340.53606759 45.5636051 340.53606759 48.71875 340.78125 C49.94416504 340.90000488 51.16958008 341.01875977 52.43212891 341.14111328 C53.78802291 341.2614545 55.14398216 341.38106232 56.5 341.5 C57.90153911 341.62864369 59.30306891 341.75738884 60.70458984 341.88623047 C70.66764431 342.7837382 80.64085928 343.50884565 90.625 344.125 C91.83349609 344.20041016 93.04199219 344.27582031 94.28710938 344.35351562 C117.67302633 345.70481015 141.07797978 346.20678428 164.5 346.1875 C165.76426819 346.18722809 167.02853638 346.18695618 168.33111572 346.18667603 C213.01202618 346.14297062 257.68834714 343.91033197 302 338 C302.3151477 334.9669541 302.3151477 334.9669541 300.4070282 333.03788471 C299.65484512 332.28846702 298.90266205 331.53904932 298.12768555 330.766922 C297.26944183 329.90455429 296.41119812 329.04218658 295.52694702 328.15368652 C294.5636752 327.20103272 293.60026096 326.24852291 292.63671875 325.29614258 C291.63116129 324.291431 290.62626331 323.28605902 289.62197876 322.28007507 C286.88907476 319.54630821 284.14700104 316.82190742 281.40323257 314.09905076 C278.53911508 311.25365153 275.68345704 308.39978864 272.8269043 305.54679871 C267.4142469 300.14347605 261.99398564 294.74784792 256.5709753 289.35491818 C250.39832875 283.21577118 244.2341702 277.06813191 238.07072258 270.91975176 C225.3899271 258.27033768 212.69847042 245.63166925 200 233 C198.23635617 233.96170012 196.47274687 234.92346359 194.70915222 235.88525391 C193.7270386 236.42082916 192.74492498 236.95640442 191.73305035 237.50820923 C177.34719883 245.36049067 163.02254684 253.3335876 148.8125 261.5 C147.84030518 262.05042969 146.86811035 262.60085938 145.86645508 263.16796875 C140.62692667 266.20372532 136.05598916 269.41805256 131.63232422 273.56298828 C128.90765674 275.9616411 126.24700266 276.80996021 122.71875 277.34765625 C119.5080475 278.11804033 117.05689271 279.43766317 114.1875 281.0625 C113.21167969 281.61035156 112.23585937 282.15820312 111.23046875 282.72265625 C110.49441406 283.14417969 109.75835937 283.56570313 109 284 C109.0628418 283.36610352 109.12568359 282.73220703 109.19042969 282.07910156 C110.80863668 268.78813114 110.80863668 268.78813114 106.328125 256.80078125 C103.49432605 253.80983371 100.38325297 251.34109022 97 249 C98.30444568 246.14885445 99.70552431 243.95252254 101.875 241.6875 C102.36742187 241.15511719 102.85984375 240.62273437 103.3671875 240.07421875 C105 239 105 239 107.10205078 239.43286133 C107.72837402 239.62001709 108.35469727 239.80717285 109 240 C118.614076 182.92571351 118.614076 182.92571351 101.73583984 129.99755859 C92.94336082 118.36142819 82.61446868 108.19501214 71.875 98.375 C70.99036953 97.56205349 70.10573906 96.74910698 69.19430161 95.91152573 C60.24870301 87.73936464 51.08944066 79.82307295 41.56591797 72.32958984 C40.88620784 71.78202373 40.20649771 71.23445761 39.5061903 70.67029858 C34.54383823 66.87314535 31.55581202 66.6752442 25.36962891 67.24023438 Z M209 151 C209 151.66 209 152.32 209 153 C209.66 153 210.32 153 211 153 C211 152.34 211 151.68 211 151 C210.34 151 209.68 151 209 151 Z M221 161 C220.67 162.32 220.34 163.64 220 165 C220.99 165.33 221.98 165.66 223 166 C223.33 165.34 223.66 164.68 224 164 C223.67 163.01 223.34 162.02 223 161 C222.34 161 221.68 161 221 161 Z M140 162 C141.98 164.64 143.96 167.28 146 170 C144.35 171.32 142.7 172.64 141 174 C140.36191406 173.3503125 139.72382813 172.700625 139.06640625 172.03125 C138.24011719 171.1959375 137.41382813 170.360625 136.5625 169.5 C135.73878906 168.6646875 134.91507813 167.829375 134.06640625 166.96875 C132.35501902 164.88503469 132.35501902 164.88503469 131 165 C131 185.79 131 206.58 131 228 C132.65 228 134.3 228 136 228 C136.99 228 137.98 228 139 228 C138.94199219 227.43152344 138.88398438 226.86304688 138.82421875 226.27734375 C138.50822908 220.86940624 139.11127779 217.66587251 142.56640625 213.4375 C146.97716753 209.0147203 152.01696321 207.93069461 158 207 C157.34 205.35 156.68 203.7 156 202 C156.61488281 201.40832031 157.22976562 200.81664062 157.86328125 200.20703125 C158.67152344 199.41683594 159.47976562 198.62664062 160.3125 197.8125 C161.11300781 197.03519531 161.91351563 196.25789063 162.73828125 195.45703125 C165.07586714 193.10674763 165.07586714 193.10674763 166.51171875 190.30859375 C168.29650632 187.540065 169.37334023 187.10462034 172.5 186.25 C173.2734375 186.02828125 174.046875 185.8065625 174.84375 185.578125 C175.5553125 185.38734375 176.266875 185.1965625 177 185 C177.99 184.67 178.98 184.34 180 184 C173.00690927 179.91136031 166.01042467 175.82859832 159.00976562 171.75292969 C157.17965394 170.68704699 155.35007979 169.62023969 153.52148438 168.55175781 C151.55839501 167.40529234 149.59239864 166.26404871 147.625 165.125 C146.56539062 164.50882813 145.50578125 163.89265625 144.4140625 163.2578125 C142.15806863 161.84597483 142.15806863 161.84597483 140 162 Z M205 166 C205 169 205 169 205 169 Z M198 201 C198.66 202.32 199.32 203.64 200 205 C198.68 206.65 197.36 208.3 196 210 C200.97209562 208.23570801 205.43438061 205.6060834 210 203 C210 202.34 210 201.68 210 201 C205.224647 199.31458129 202.55270882 198.51670428 198 201 Z M174 200 C175.612328 204.03082 178.46234596 206.75944137 181.5 209.75 C181.99886719 210.25660156 182.49773437 210.76320313 183.01171875 211.28515625 C185.53061637 214.12805599 185.53061637 214.12805599 189 215 C187.387672 210.96918 184.53765404 208.24055863 181.5 205.25 C181.00113281 204.74339844 180.50226563 204.23679687 179.98828125 203.71484375 C177.46938363 200.87194401 177.46938363 200.87194401 174 200 Z M153 221 C152.6 224.83125 152.6 224.83125 154.3125 226.75 C156.0517724 228.29761378 156.0517724 228.29761378 159 228 C158.4409112 224.75728494 157.5867822 223.06942576 155 221 C154.34 221 153.68 221 153 221 Z M132 242 C132 243.32 132 244.64 132 246 C133.65 245.67 135.3 245.34 137 245 C135.62514468 243.45833358 135.62514468 243.45833358 134 242 C133.34 242 132.68 242 132 242 Z M-8 376 C-6.35 377.65 -4.7 379.3 -3 381 C-2.67 380.34 -2.34 379.68 -2 379 C-2.33 378.01 -2.66 377.02 -3 376 C-4.65 376 -6.3 376 -8 376 Z " fill="#FEFEFE" transform="translate(85,54)"/>
<path d="M0 0 C2.58078713 2.01573058 4.4422591 4.11529463 6 7 C6.375 10.9375 6.375 10.9375 6 14 C6.99 13.855625 7.98 13.71125 9 13.5625 C13.56820652 13.58114574 16.18494164 15.78237486 19.37109375 18.875 C21.60636169 21.791033 22.39947774 24.0520639 22.5 27.71484375 C21.51113275 32.23427612 18.59127276 35.23964917 15 38 C11.5625 39 11.5625 39 9 39 C9.23066162 39.58426758 9.46132324 40.16853516 9.69897461 40.77050781 C10 43 10 43 8.73657227 44.83105469 C8.10291748 45.43852539 7.4692627 46.04599609 6.81640625 46.671875 C6.13642578 47.33574219 5.45644531 47.99960937 4.75585938 48.68359375 C3.67014648 49.70646484 3.67014648 49.70646484 2.5625 50.75 C1.84255859 51.44738281 1.12261719 52.14476562 0.38085938 52.86328125 C-1.40211461 54.58721636 -3.19567826 56.29846609 -5 58 C-7.77960675 56.72669411 -9.85743296 55.40171491 -12.0402832 53.26611328 C-12.60378983 52.71859406 -13.16729645 52.17107483 -13.74787903 51.60696411 C-14.34283676 51.01736908 -14.93779449 50.42777405 -15.55078125 49.8203125 C-16.16898239 49.21113983 -16.78718353 48.60196716 -17.42411804 47.97433472 C-18.72531842 46.68761328 -20.02374974 45.39808637 -21.31958008 44.10595703 C-23.31076886 42.12672074 -25.31984808 40.16690114 -27.33007812 38.20703125 C-28.59229029 36.95427704 -29.85339726 35.7004081 -31.11328125 34.4453125 C-31.71836014 33.85976593 -32.32343903 33.27421936 -32.94685364 32.67092896 C-34.60668945 30.99267578 -34.60668945 30.99267578 -37 28 C-36.35881557 23.11999914 -33.08582437 20.53427347 -29.75 17.1875 C-29.17636719 16.57712891 -28.60273438 15.96675781 -28.01171875 15.33789062 C-26.40248112 13.71215739 -24.90658083 12.26509823 -23 11 C-20.078125 11.11328125 -20.078125 11.11328125 -18 12 C-18.33 11.01 -18.66 10.02 -19 9 C-17.06912329 4.92370473 -14.33466021 2.00119419 -11 -1 C-6.93615709 -2.3546143 -3.82641553 -1.69342307 0 0 Z M-8 23 C-6.35 24.65 -4.7 26.3 -3 28 C-2.67 27.34 -2.34 26.68 -2 26 C-2.33 25.01 -2.66 24.02 -3 23 C-4.65 23 -6.3 23 -8 23 Z " fill="#000000" transform="translate(438,407)"/>
<path d="M0 0 C4.19747503 1.40145959 7.35379533 3.7505594 9.375 7.79296875 C9.41522391 10.12595535 9.41820247 12.46003541 9.375 14.79296875 C10.365 14.64859375 11.355 14.50421875 12.375 14.35546875 C16.94320652 14.37411449 19.55994164 16.57534361 22.74609375 19.66796875 C24.98136169 22.58400175 25.77447774 24.84503265 25.875 28.5078125 C24.88613275 33.02724487 21.96627276 36.03261792 18.375 38.79296875 C14.9375 39.79296875 14.9375 39.79296875 12.375 39.79296875 C12.60566162 40.37723633 12.83632324 40.96150391 13.07397461 41.56347656 C13.375 43.79296875 13.375 43.79296875 12.11157227 45.62402344 C11.47791748 46.23149414 10.8442627 46.83896484 10.19140625 47.46484375 C9.51142578 48.12871094 8.83144531 48.79257812 8.13085938 49.4765625 C7.04514648 50.49943359 7.04514648 50.49943359 5.9375 51.54296875 C5.21755859 52.24035156 4.49761719 52.93773437 3.75585938 53.65625 C1.97288539 55.38018511 0.17932174 57.09143484 -1.625 58.79296875 C-4.40460675 57.51966286 -6.48243296 56.19468366 -8.6652832 54.05908203 C-9.22878983 53.51156281 -9.79229645 52.96404358 -10.37287903 52.39993286 C-10.96783676 51.81033783 -11.56279449 51.2207428 -12.17578125 50.61328125 C-12.79398239 50.00410858 -13.41218353 49.39493591 -14.04911804 48.76730347 C-15.35031842 47.48058203 -16.64874974 46.19105512 -17.94458008 44.89892578 C-19.93576886 42.91968949 -21.94484808 40.95986989 -23.95507812 39 C-25.21729029 37.74724579 -26.47839726 36.49337685 -27.73828125 35.23828125 C-28.34336014 34.65273468 -28.94843903 34.06718811 -29.57185364 33.46389771 C-31.23168945 31.78564453 -31.23168945 31.78564453 -33.625 28.79296875 C-32.98381557 23.91296789 -29.71082437 21.32724222 -26.375 17.98046875 C-25.80136719 17.37009766 -25.22773437 16.75972656 -24.63671875 16.13085938 C-23.02748112 14.50512614 -21.53158083 13.05806698 -19.625 11.79296875 C-16.703125 11.90625 -16.703125 11.90625 -14.625 12.79296875 C-14.769375 11.94734375 -14.91375 11.10171875 -15.0625 10.23046875 C-14.50341951 5.8376935 -13.04255199 4.03790475 -9.82421875 1.09375 C-6.4263464 -0.91600398 -3.80639735 -0.67888489 0 0 Z M-4.625 23.79296875 C-2.975 25.44296875 -1.325 27.09296875 0.375 28.79296875 C0.705 28.13296875 1.035 27.47296875 1.375 26.79296875 C1.045 25.80296875 0.715 24.81296875 0.375 23.79296875 C-1.275 23.79296875 -2.925 23.79296875 -4.625 23.79296875 Z " fill="#000000" transform="translate(81.625,406.20703125)"/>
<path d="M0 0 C2.58078713 2.01573058 4.4422591 4.11529463 6 7 C6.375 10.9375 6.375 10.9375 6 14 C6.99 13.855625 7.98 13.71125 9 13.5625 C13.56820652 13.58114574 16.18494164 15.78237486 19.37109375 18.875 C21.60636169 21.791033 22.39947774 24.0520639 22.5 27.71484375 C21.51113275 32.23427612 18.59127276 35.23964917 15 38 C11.5625 39 11.5625 39 9 39 C9.32025146 39.89561646 9.32025146 39.89561646 9.64697266 40.80932617 C9.82172119 41.89370972 9.82172119 41.89370972 10 43 C8.1919648 45.34564036 6.47720032 47.26613179 4.375 49.3125 C3.84003906 49.87517578 3.30507813 50.43785156 2.75390625 51.01757812 C1.1484375 52.61328125 1.1484375 52.61328125 -2 55 C-11.89503954 54.05921862 -19.08247991 46.58509681 -25.70605469 39.87036133 C-27.14200007 38.4203332 -28.60076333 36.99624076 -30.0625 35.57226562 C-31.42761719 34.20424805 -31.42761719 34.20424805 -32.8203125 32.80859375 C-33.64805176 31.98157959 -34.47579102 31.15456543 -35.32861328 30.30249023 C-37 28 -37 28 -36.93408203 25.90380859 C-35.21451505 22.39905602 -32.48109874 19.92756296 -29.75 17.1875 C-29.17636719 16.57712891 -28.60273438 15.96675781 -28.01171875 15.33789062 C-26.40248112 13.71215739 -24.90658083 12.26509823 -23 11 C-20.078125 11.11328125 -20.078125 11.11328125 -18 12 C-18.33 11.01 -18.66 10.02 -19 9 C-17.06912329 4.92370473 -14.33466021 2.00119419 -11 -1 C-6.93615709 -2.3546143 -3.82641553 -1.69342307 0 0 Z M-8 23 C-6.35 24.65 -4.7 26.3 -3 28 C-2.67 27.34 -2.34 26.68 -2 26 C-2.33 25.01 -2.66 24.02 -3 23 C-4.65 23 -6.3 23 -8 23 Z " fill="#000000" transform="translate(438,54)"/>
<path d="M0 0 C2.58078713 2.01573058 4.4422591 4.11529463 6 7 C6.375 10.9375 6.375 10.9375 6 14 C6.99 13.855625 7.98 13.71125 9 13.5625 C13.56820652 13.58114574 16.18494164 15.78237486 19.37109375 18.875 C21.60636169 21.791033 22.39947774 24.0520639 22.5 27.71484375 C21.51113275 32.23427612 18.59127276 35.23964917 15 38 C11.5625 39 11.5625 39 9 39 C9.495 40.98 9.495 40.98 10 43 C4.44035232 48.81453125 -0.91765371 51.99598183 -9 53 C-13.32092185 52.62836444 -15.76200236 49.70559114 -18.67578125 46.79296875 C-19.20519821 46.27116531 -19.73461517 45.74936188 -20.28007507 45.21174622 C-21.39410394 44.10850389 -22.50420164 43.00127965 -23.6105957 41.89038086 C-25.31016027 40.18984107 -27.02994497 38.51175655 -28.75195312 36.83398438 C-29.83202715 35.75911519 -30.91084787 34.68298486 -31.98828125 33.60546875 C-32.50586502 33.10428024 -33.02344879 32.60309174 -33.55671692 32.0867157 C-37.00370365 28.57114182 -37.00370365 28.57114182 -36.98608398 25.85400391 C-35.15959952 22.41990562 -32.47632736 19.92277592 -29.75 17.1875 C-29.17636719 16.57712891 -28.60273437 15.96675781 -28.01171875 15.33789062 C-26.40248112 13.71215739 -24.90658083 12.26509823 -23 11 C-20.078125 11.11328125 -20.078125 11.11328125 -18 12 C-18.33 11.01 -18.66 10.02 -19 9 C-17.06912329 4.92370473 -14.33466021 2.00119419 -11 -1 C-6.93615709 -2.3546143 -3.82641553 -1.69342307 0 0 Z M-8 23 C-6.35 24.65 -4.7 26.3 -3 28 C-2.67 27.34 -2.34 26.68 -2 26 C-2.33 25.01 -2.66 24.02 -3 23 C-4.65 23 -6.3 23 -8 23 Z " fill="#000000" transform="translate(85,54)"/>
<path d="M0 0 C2.23828125 1.64453125 2.23828125 1.64453125 4.3125 3.8125 C5.00988281 4.52019531 5.70726562 5.22789062 6.42578125 5.95703125 C8 8 8 8 8 11 C8.556875 11.103125 9.11375 11.20625 9.6875 11.3125 C14.74178986 12.81512672 18.32770594 15.44720271 21 20 C21.93835666 25.64056617 21.22430922 30.21554116 18 35 C13.92800537 39.98740427 10.55414021 42.92750433 4 44 C-1.1729736 44.44133061 -4.22486322 43.23152662 -8.75 40.75 C-9.87921875 40.14671875 -11.0084375 39.5434375 -12.171875 38.921875 C-15.0493043 36.96649487 -15.6085892 36.01689071 -17 33 C-20.56206661 32.18129815 -20.56206661 32.18129815 -24 32 C-24 31.01 -24 30.02 -24 29 C-22.35 28.34 -20.7 27.68 -19 27 C-19.474375 26.2575 -19.94875 25.515 -20.4375 24.75 C-22.17083421 21.6993318 -23.35464938 19.5378331 -22.546875 16.03515625 C-18.04214987 4.88375335 -18.04214987 4.88375335 -12 2 C-7.91372699 0.61358594 -4.31310851 -0.48877493 0 0 Z M-8 15 C-8 15.66 -8 16.32 -8 17 C-7.34 17 -6.68 17 -6 17 C-6 16.34 -6 15.68 -6 15 C-6.66 15 -7.32 15 -8 15 Z M4 25 C3.67 26.32 3.34 27.64 3 29 C3.99 29.33 4.98 29.66 6 30 C6.33 29.34 6.66 28.68 7 28 C6.67 27.01 6.34 26.02 6 25 C5.34 25 4.68 25 4 25 Z M-12 30 C-12 33 -12 33 -12 33 Z " fill="#EBEBEB" transform="translate(302,190)"/>
<path d="M0 0 C3.48298192 1.78471044 6.72785086 3.85911432 10 6 C10.66 6.33 11.32 6.66 12 7 C12 8.32 12 9.64 12 11 C12.62648438 11.03738281 13.25296875 11.07476562 13.8984375 11.11328125 C14.71570313 11.17902344 15.53296875 11.24476563 16.375 11.3125 C17.59316406 11.39951172 17.59316406 11.39951172 18.8359375 11.48828125 C21 12 21 12 23 15 C21.02 15.33 19.04 15.66 17 16 C17 16.66 17 17.32 17 18 C17 21 17 21 15.03125 23.04296875 C13.77828125 24.10451172 13.77828125 24.10451172 12.5 25.1875 C11.6646875 25.90292969 10.829375 26.61835938 9.96875 27.35546875 C9.3190625 27.89816406 8.669375 28.44085938 8 29 C3.95864413 27.40069566 1.32092848 24.51339591 -1.625 21.4375 C-4.96402902 17.77285984 -4.96402902 17.77285984 -9 15 C-4.83295817 19.85743929 -0.58155004 24.53019508 4 29 C3.505 30.485 3.505 30.485 3 32 C-0.97314921 30.37849996 -3.79300438 27.64417127 -6.8125 24.6875 C-7.32748047 24.21376953 -7.84246094 23.74003906 -8.37304688 23.25195312 C-9.83203125 21.82421875 -9.83203125 21.82421875 -12 19 C-11.93537862 15.52535813 -11.46115743 14.46115743 -9 12 C-5.28108426 12.04496098 -3.94471381 13.04782517 -1.10546875 15.50390625 C-0.12238248 16.5133841 0.85009858 17.53328299 1.8125 18.5625 C2.31458984 19.08263672 2.81667969 19.60277344 3.33398438 20.13867188 C4.56529127 21.4168857 5.7839407 22.70727147 7 24 C10.52381687 21.45395403 10.52381687 21.45395403 13 18 C12.45730469 17.79632813 11.91460937 17.59265625 11.35546875 17.3828125 C8.68874993 15.81727608 6.89481516 13.83933971 4.83764648 11.55493164 C0.2675694 6.3473649 0.2675694 6.3473649 -5.6796875 3.10546875 C-9.04812572 3.04472642 -11.05259648 3.21669639 -13.69140625 5.3984375 C-15.17415787 7.02326757 -15.17415787 7.02326757 -15.875 9.5625 C-17.3493142 12.75684743 -18.82355983 12.77829224 -22 14 C-23.02037457 15.80120695 -23.02037457 15.80120695 -23 18 C-21.55623201 20.10465513 -21.55623201 20.10465513 -19.37890625 22.0390625 C-18.60869141 22.78414063 -17.83847656 23.52921875 -17.04492188 24.296875 C-16.22572266 25.06515625 -15.40652344 25.8334375 -14.5625 26.625 C-12.95549366 28.15451433 -11.35240433 29.68815834 -9.75390625 31.2265625 C-9.03533447 31.90283691 -8.3167627 32.57911133 -7.57641602 33.27587891 C-6 35 -6 35 -6 37 C-10.38461538 40 -10.38461538 40 -13 40 C-13.20625 38.96875 -13.4125 37.9375 -13.625 36.875 C-14.93538429 32.45918446 -17.03301532 29.41750805 -21 27 C-25.41823429 25.79824027 -29.4233523 25.62297555 -33.875 26.6875 C-36.90209651 28.55717726 -39.32148057 30.41678801 -40.75 33.75 C-40.8325 34.4925 -40.915 35.235 -41 36 C-41.165 37.258125 -41.33 38.51625 -41.5 39.8125 C-41.5 42.66208035 -41.17499956 43.76768808 -39.4375 46.07421875 C-37.68799784 47.81313924 -35.91029483 49.44057565 -34 51 C-35.22417747 54.67253242 -36.8350267 55.37266246 -40.16015625 57.140625 C-42.48645729 58.22721996 -44.42749425 58.86094564 -47 59 C-49.3125 58.0625 -49.3125 58.0625 -51 57 C-50.67 58.65 -50.34 60.3 -50 62 C-50.99 62.495 -50.99 62.495 -52 63 C-52 60.36 -52 57.72 -52 55 C-50.27473958 54.34895833 -48.54947917 53.69791667 -46.82421875 53.046875 C-44.48755366 51.86565345 -44.48755366 51.86565345 -42 48 C-45.3 47.34 -48.6 46.68 -52 46 C-51.67 44.68 -51.34 43.36 -51 42 C-49.02 42.33 -47.04 42.66 -45 43 C-45.06960937 42.443125 -45.13921875 41.88625 -45.2109375 41.3125 C-45.63189984 35.3789356 -44.48452706 32.20172078 -40.65625 27.66015625 C-36.41642228 23.41032894 -31.75619923 22.08901066 -26 21 C-26.66 19.68 -27.32 18.36 -28 17 C-27.38511719 16.40832031 -26.77023438 15.81664062 -26.13671875 15.20703125 C-25.32847656 14.41683594 -24.52023438 13.62664062 -23.6875 12.8125 C-22.88699219 12.03519531 -22.08648437 11.25789062 -21.26171875 10.45703125 C-19.08565237 8.09304894 -17.62571179 5.75299618 -16 3 C-10.72018775 -0.69586858 -6.25660967 -1.75017389 0 0 Z " fill="#101010" transform="translate(268,239)"/>
<path d="M0 0 C1.8125 0.5625 1.8125 0.5625 4 2 C4.57041016 3.48886719 4.57041016 3.48886719 5.15234375 5.0078125 C7.36663504 10.783834 12.20417155 14.66162704 16.5625 18.875 C17.43841797 19.74125 18.31433594 20.6075 19.21679688 21.5 C23.24520099 25.73587726 23.24520099 25.73587726 28 29 C27.67 30.32 27.34 31.64 27 33 C27.99 33.495 27.99 33.495 29 34 C24.3684622 38.60338255 21.58416558 40.19141826 15 41 C12.82371828 42.19071976 10.82264617 43.5112118 8.796875 44.94140625 C7 46 7 46 4 46 C4.03254883 45.36610352 4.06509766 44.73220703 4.09863281 44.07910156 C5.06062081 30.72975151 5.06062081 30.72975151 0.26171875 18.80078125 C-2.56088086 15.82881978 -5.6487153 13.35044854 -9 11 C-7.59155282 7.78475695 -5.89655214 5.67816132 -3.375 3.25 C-2.74335938 2.63640625 -2.11171875 2.0228125 -1.4609375 1.390625 C-0.73777344 0.70226562 -0.73777344 0.70226562 0 0 Z " fill="#F9F9F9" transform="translate(190,292)"/>
<path d="M0 0 C3.42041092 3.18913759 5.39735874 5.14869867 6.0703125 9.859375 C5.8228125 11.096875 5.8228125 11.096875 5.5703125 12.359375 C6.2303125 12.359375 6.8903125 12.359375 7.5703125 12.359375 C8.74581935 15.88589554 8.12772585 17.28308869 6.58203125 20.5703125 C4.94018316 23.47365778 3.24315562 25.37028245 0.5703125 27.359375 C-2.3671875 27.171875 -2.3671875 27.171875 -5.4296875 26.359375 C-6.4196875 26.42125 -7.4096875 26.483125 -8.4296875 26.546875 C-12.48179574 26.29361823 -14.2635738 24.86588168 -17.4296875 22.359375 C-17.99429688 21.92367188 -18.55890625 21.48796875 -19.140625 21.0390625 C-21.50087113 19.0112454 -23.18107344 17.46941495 -23.875 14.37109375 C-24.02731133 8.59414259 -22.76960344 4.91085662 -19.0546875 0.609375 C-13.70048636 -3.97994027 -5.82833141 -3.93552925 0 0 Z M-11.4296875 8.359375 C-11.8296875 12.190625 -11.8296875 12.190625 -10.1171875 14.109375 C-8.3779151 15.65698878 -8.3779151 15.65698878 -5.4296875 15.359375 C-5.9887763 12.11665994 -6.8429053 10.42880076 -9.4296875 8.359375 C-10.0896875 8.359375 -10.7496875 8.359375 -11.4296875 8.359375 Z " fill="#F1F1F1" transform="translate(249.4296875,266.640625)"/>
<path d="M0 0 C4.8586745 -0.83076755 7.53434045 -1.00600415 11.67462158 1.83581543 C14.70445787 4.57870176 17.57159681 7.42530803 20.4140625 10.359375 C21.47815801 11.42756943 22.54389 12.49413594 23.61117554 13.55914307 C25.83570775 15.78844269 28.04424537 18.03209659 30.24169922 20.28808594 C33.06159531 23.18191036 35.91160661 26.04364452 38.77317238 28.8962059 C40.97235472 31.09286653 43.15853137 33.302092 45.34058762 35.5157547 C46.3876603 36.5762332 47.43793345 37.63356142 48.49141312 38.68767548 C49.95724813 40.15962927 51.40560209 41.64678706 52.85009766 43.13964844 C53.67788727 43.98348083 54.50567688 44.82731323 55.35855103 45.69671631 C57 48 57 48 56.8843689 50.17877197 C56 52 56 52 54 54 C49.88411956 53.80892687 47.74559116 51.12620334 44.95605469 48.34423828 C44.46779205 47.8612326 43.97952942 47.37822693 43.47647095 46.88058472 C41.86731754 45.28461772 40.26936556 43.67794724 38.671875 42.0703125 C37.55701829 40.95747659 36.44171657 39.84508634 35.32598877 38.73312378 C32.99105869 36.40261494 30.66163739 34.06676975 28.3359375 31.72705078 C25.35100494 28.72500676 22.35278076 25.73665723 19.35032272 22.7521534 C17.04583805 20.45849492 14.74852898 18.15775682 12.45334625 15.85479355 C11.3503175 14.7497606 10.24504776 13.64695998 9.1375351 12.54642105 C7.59311207 11.00959542 6.05859827 9.46351915 4.52636719 7.91455078 C3.65018738 7.03598419 2.77400757 6.1574176 1.87127686 5.25222778 C0 3 0 3 0 0 Z " fill="#F8F8F8" transform="translate(0,0)"/>
<path d="M0 0 C0.87167313 0.1941449 0.87167313 0.1941449 1.76095581 0.39221191 C-3.61098325 6.92099925 -9.55689493 12.83801053 -15.54373169 18.79455566 C-16.63396784 19.88292331 -17.72398088 20.97151449 -18.81378174 22.06031799 C-21.66216213 24.90490727 -24.51353423 27.74647872 -27.36557007 30.58740234 C-30.28356419 33.49510857 -33.19867723 36.40570016 -36.11404419 39.31604004 C-41.81958403 45.01090272 -47.52829213 50.70257603 -53.23904419 56.39221191 C-56.40020194 55.02237689 -57.23175339 54.40314812 -59.23904419 51.39221191 C-52.79203994 44.71307383 -46.3180577 38.06162468 -39.80844307 31.44348907 C-36.7862583 28.3692075 -33.77403508 25.28637286 -30.7829895 22.1817627 C-27.89372407 19.18350197 -24.98039782 16.21065292 -22.04909897 13.25349426 C-20.93752422 12.12350194 -19.83475983 10.98476975 -18.74133682 9.83720398 C-8.36771692 -1.028967 -8.36771692 -1.028967 0 0 Z " fill="#F7F7F7" transform="translate(166.23904418945313,-0.3922119140625)"/>
<path d="M0 0 C8.63661002 7.22965618 16.59689474 15.14946449 24.61791992 23.0480957 C26.50136657 24.89468557 28.39369714 26.73225657 30.29467773 28.56079102 C33.05030661 31.21318787 35.77548486 33.8937823 38.49609375 36.58203125 C39.34908554 37.39170853 40.20207733 38.2013858 41.08091736 39.03559875 C47.5091379 45.48486502 47.5091379 45.48486502 47.53149414 51.08862305 C47.26840454 53.02475464 47.26840454 53.02475464 47 55 C42.8884164 54.47275535 40.99635871 52.35948786 38.13964844 49.48022461 C37.67089294 49.0119072 37.20213745 48.54358978 36.71917725 48.06108093 C35.17535675 46.51517453 33.6424274 44.95892317 32.109375 43.40234375 C31.03957606 42.32694816 29.96911176 41.25221408 28.89801025 40.17811584 C26.08344419 37.35210651 23.27800421 34.51720358 20.47436523 31.68035889 C17.61075972 28.78604148 14.73862139 25.90021924 11.8671875 23.01367188 C6.23640183 17.35073117 0.61522817 11.67836727 -5 6 C-3.35 4.02 -1.7 2.04 0 0 Z " fill="#F8F8F8" transform="translate(465,457)"/>
<path d="M0 0 C5.95673603 4.94013303 11.41874494 10.27706906 16.88256836 15.75317383 C17.85875182 16.72799981 18.83514735 17.70261347 19.81173706 18.67703247 C22.44373511 21.30450104 25.07259595 23.93508704 27.70073771 26.56641221 C30.45520416 29.32342121 33.21212175 32.07797744 35.96864319 34.83293152 C40.58937408 39.45184808 45.20800303 44.07285855 49.82543945 48.69506836 C55.16948855 54.04457801 60.51715666 59.39044962 65.86668104 64.73448354 C70.46310245 69.32637585 75.05758352 73.92020275 79.65042979 78.51567096 C82.39243815 81.25924073 85.13512353 84.00212453 87.87956047 86.74326515 C90.45340238 89.31423066 93.0248092 91.88760653 95.59431076 94.4629097 C96.99290033 95.86346326 98.39396838 97.26154041 99.79508972 98.65956116 C100.61797485 99.48526611 101.44085999 100.31097107 102.28868103 101.16169739 C103.00964934 101.88304273 103.73061766 102.60438807 104.47343349 103.34759235 C106 105 106 105 106 106 C102.8220711 106.34895346 101.41140105 106.29655029 98.77617168 104.39699745 C97.643749 103.26155778 97.643749 103.26155778 96.4884491 102.10317993 C95.61491791 101.23941238 94.74138672 100.37564484 93.84138489 99.48570251 C92.88644716 98.51625914 91.93175882 97.54657005 90.97729492 96.57666016 C89.96284983 95.56407888 88.94731908 94.55258426 87.93078613 93.542099 C85.17379838 90.79509563 82.43265704 88.03275986 79.69433379 85.26716661 C76.82926222 82.37829156 73.95083491 79.50278291 71.0740509 76.62557983 C66.24637789 71.79327744 61.42831566 66.95156126 56.61645508 62.10351562 C51.04695189 56.49224284 45.4654262 50.89316991 39.8766529 45.3010937 C33.93357151 39.35441783 27.99815763 33.40013859 22.06562257 27.4429431 C20.35214658 25.72322823 18.6373685 24.00482035 16.92235374 22.28664017 C14.23267457 19.59107631 11.5482512 16.89038436 8.86788177 14.18556404 C7.88111991 13.19133886 6.89264339 12.19881223 5.90237617 11.20807838 C4.55581883 9.86027066 3.21602005 8.50572051 1.87663269 7.15078735 C1.12356936 6.39307352 0.37050604 5.63535969 -0.40537739 4.85468483 C-2 3 -2 3 -2 1 C-1.34 0.67 -0.68 0.34 0 0 Z " fill="#000000" transform="translate(287,285)"/>
<path d="M0 0 C3.16115776 1.36983503 3.9927092 1.9890638 6 5 C-1.02052846 12.04364869 -8.04371819 19.08463164 -15.07036495 26.12217712 C-18.33266031 29.38970202 -21.59401451 32.65815512 -24.85327148 35.92871094 C-27.99577287 39.08203872 -31.14067598 42.23295228 -34.28729439 45.38217163 C-35.49030875 46.58704069 -36.69243937 47.79279277 -37.89369011 48.99942017 C-39.56997783 50.68291503 -41.24931601 52.36330709 -42.92944336 54.04296875 C-43.43078796 54.54790863 -43.93213257 55.05284851 -44.44866943 55.5730896 C-47.88594784 59 -47.88594784 59 -49 59 C-49.74953008 55.46680458 -49.78835992 52.53555291 -49 49 C-45.97709574 44.5565325 -42.15615 40.98930561 -38.28125 37.3046875 C-37.18048386 36.22259488 -36.08192134 35.13825645 -34.98547363 34.05178833 C-32.10704051 31.21136286 -29.19986367 28.40225996 -26.28546143 25.59881592 C-23.31152911 22.7275627 -20.36604048 19.82744507 -17.41796875 16.9296875 C-11.6393009 11.25795897 -5.82992049 5.61903108 0 0 Z " fill="#F7F7F7" transform="translate(49,109)"/>
<path d="M0 0 C6.36508567 5.24820057 12.15322975 11.02471452 17.96484375 16.8671875 C19.00837079 17.91258325 20.05212152 18.95775575 21.09608459 20.00271606 C23.82230745 22.7327284 26.54551181 25.46573193 29.26806641 28.19940186 C32.05512459 30.99675154 34.84507146 33.79121701 37.63476562 36.5859375 C43.09265081 42.05449694 48.54734559 47.52622445 54 53 C52.02 55.475 52.02 55.475 50 58 C46.44899908 56.47826938 44.08851094 54.3862601 41.32324219 51.70898438 C39.94226349 50.37619446 39.94226349 50.37619446 38.53338623 49.01647949 C37.53703494 48.04310313 36.54155198 47.06883725 35.546875 46.09375 C35.04304543 45.60056778 34.53921585 45.10738556 34.02011871 44.59925842 C31.35523938 41.98772311 28.69768401 39.36895654 26.04492188 36.74511719 C23.85472214 34.58159745 21.65094372 32.43353118 19.43359375 30.29785156 C16.74808721 27.71123445 14.08821737 25.10067989 11.44461823 22.4712677 C10.43717442 21.47720506 9.42127271 20.49163508 8.3967514 19.5151825 C0.39038314 11.86353742 0.39038314 11.86353742 -0.60876465 7.09399414 C-0.6187949 4.63819909 -0.46603547 2.40740141 0 0 Z " fill="#FBFBFB" transform="translate(0,348)"/>
<path d="M0 0 C3.77669645 1.56903998 6.17152306 3.92394834 9.04394531 6.80102539 C9.53220795 7.28738968 10.02047058 7.77375397 10.52352905 8.27485657 C12.12998318 9.87761711 13.72914307 11.48744377 15.328125 13.09765625 C16.44305554 14.21377911 17.55835623 15.32953233 18.67401123 16.44493103 C21.00714154 18.77962356 23.3368783 21.11763266 25.6640625 23.45825195 C28.65410101 26.46532917 31.65072974 29.46573199 34.64967728 32.46392155 C36.95070487 34.76522032 39.24912279 37.0691102 41.54665375 39.37389946 C42.65131003 40.48174709 43.75658114 41.588982 44.8624649 42.69560432 C46.4020609 44.23735618 47.93832598 45.78234758 49.47363281 47.32836914 C50.34981262 48.20836075 51.22599243 49.08835236 52.12872314 49.99501038 C54 52 54 52 54 53 C50.47306747 53.72977259 47.52833605 53.77421774 44 53 C39.63082295 50.04730177 36.13615084 46.30337389 32.5234375 42.5 C31.46376586 41.42165407 30.4018474 40.34551188 29.33779907 39.27148438 C26.55654154 36.45222499 23.80663442 33.60424987 21.06237793 30.74902344 C18.25145819 27.83541148 15.41165767 24.95025034 12.57421875 22.0625 C7.02096195 16.40231428 1.50052954 10.71143721 -4 5 C-2.68 3.35 -1.36 1.7 0 0 Z " fill="#FBFBFB" transform="translate(110,459)"/>
<path d="M0 0 C3.52693253 -0.72977259 6.47166395 -0.77421774 10 0 C14.36917705 2.95269823 17.86384916 6.69662611 21.4765625 10.5 C22.53623414 11.57834593 23.5981526 12.65448812 24.66220093 13.72851562 C27.44345846 16.54777501 30.19336558 19.39575013 32.93762207 22.25097656 C35.74854181 25.16458852 38.58834233 28.04974966 41.42578125 30.9375 C46.97903805 36.59768572 52.49947046 42.28856279 58 48 C56.02 50.475 56.02 50.475 54 53 C50.22330355 51.43096002 47.82847694 49.07605166 44.95605469 46.19897461 C44.46779205 45.71261032 43.97952942 45.22624603 43.47647095 44.72514343 C41.87001682 43.12238289 40.27085693 41.51255623 38.671875 39.90234375 C37.55694446 38.78622089 36.44164377 37.67046767 35.32598877 36.55506897 C32.99285846 34.22037644 30.6631217 31.88236734 28.3359375 29.54174805 C25.34589899 26.53467083 22.34927026 23.53426801 19.35032272 20.53607845 C17.04929513 18.23477968 14.75087721 15.9308898 12.45334625 13.62610054 C11.34868997 12.51825291 10.24341886 11.411018 9.1375351 10.30439568 C7.5979391 8.76264382 6.06167402 7.21765242 4.52636719 5.67163086 C3.65018738 4.79163925 2.77400757 3.91164764 1.87127686 3.00498962 C0 1 0 1 0 0 Z " fill="#080808" transform="translate(349,0)"/>
<path d="M0 0 C3.50817111 1.5100894 5.84946404 3.55272359 8.58496094 6.19921875 C9.48559265 7.06772461 10.38622437 7.93623047 11.31414795 8.83105469 C12.2884044 9.78233599 13.26179264 10.73450718 14.234375 11.6875 C14.72717201 12.16964966 15.21996902 12.65179932 15.72769928 13.14855957 C18.33422152 15.70174187 20.9334214 18.26215179 23.52783203 20.82763672 C25.66953837 22.94266425 27.82480129 25.0422174 29.99365234 27.12939453 C32.62081628 29.65765097 35.22230707 32.20984255 37.80756378 34.78091431 C38.79267964 35.75265184 39.78625085 36.71589869 40.78844452 37.67001343 C48.61823035 45.1450864 48.61823035 45.1450864 49.59533691 49.89257812 C49.60515319 52.34858986 49.45432298 54.5899503 49 57 C42.71486996 51.81239418 36.99688842 46.12572734 31.25390625 40.3515625 C30.23279952 39.32858694 29.211469 38.30583472 28.18992615 37.28329468 C25.52288647 34.61246639 22.85886564 31.93864718 20.19549561 29.26416016 C17.4687615 26.52713264 14.73913695 23.79299099 12.00976562 21.05859375 C6.67036911 15.70852452 1.33416348 10.35528727 -4 5 C-2.68 3.35 -1.36 1.7 0 0 Z " fill="#080808" transform="translate(463,106)"/>
<path d="M0 0 C0.62674845 3.22708779 0.80265249 4.86453196 0 8 C-2.96949431 12.13337078 -6.62136033 15.55250741 -10.28125 19.0625 C-11.33674062 20.1030567 -12.3904691 21.1454036 -13.44250488 22.18945312 C-16.2068214 24.92332641 -18.99430969 27.63231828 -21.78741455 30.33673096 C-24.637063 33.1043196 -27.46400206 35.89489582 -30.29296875 38.68359375 C-35.84007225 44.14507943 -41.41186991 49.58046575 -47 55 C-50.16115776 53.63016497 -50.9927092 53.0109362 -53 50 C-46.54144187 43.47201645 -40.07487679 36.95210347 -33.5978651 30.44242859 C-30.59077475 27.41966375 -27.58654596 24.39416404 -24.58862305 21.36230469 C-21.69686564 18.4380176 -18.7979002 15.52106063 -15.89373207 12.60910034 C-14.78549146 11.49530474 -13.67990038 10.3788665 -12.57698631 9.25979614 C-11.03500355 7.69612426 -9.483976 6.14200552 -7.93041992 4.58984375 C-7.04883713 3.70159912 -6.16725433 2.81335449 -5.25895691 1.89819336 C-3 0 -3 0 0 0 Z " fill="#111111" transform="translate(512,0)"/>
<path d="M0 0 C0.94685626 4.81620823 0.99694255 8.50400688 -1.78564453 12.67950439 C-4.43489544 15.59117234 -7.20735496 18.33326683 -10.0625 21.0390625 C-11.09600551 22.05389208 -12.12730702 23.07097064 -13.15649414 24.09017944 C-15.85740745 26.75310323 -18.58697667 29.38461714 -21.32385254 32.01049805 C-24.11682411 34.70074944 -26.8813297 37.41991657 -29.6484375 40.13671875 C-35.07165593 45.45303046 -40.52550411 50.73645168 -46 56 C-49.16115776 54.63016497 -49.9927092 54.0109362 -52 51 C-45.37062295 44.34750215 -38.73858541 37.69767167 -32.10308933 31.05127716 C-29.02239619 27.96535461 -25.94264454 24.87850428 -22.86499023 21.78955078 C-19.89755312 18.81128683 -16.92771425 15.83543785 -13.95615959 12.86128235 C-12.82013121 11.72339935 -11.68498656 10.5846334 -10.55072212 9.44499207 C-8.96783329 7.85489551 -7.38189494 6.26790389 -5.79516602 4.68164062 C-4.89137711 3.7756311 -3.9875882 2.86962158 -3.05641174 1.93615723 C-1 0 -1 0 0 0 Z " fill="#000000" transform="translate(512,353)"/>
<path d="M0 0 C3.16115776 1.36983503 3.9927092 1.9890638 6 5 C0.16431547 11.02129844 -5.69286073 17.0204952 -11.57846832 22.9929657 C-14.31094971 25.76714403 -17.03551754 28.54823979 -19.74316406 31.34667969 C-22.35805158 34.04868915 -24.99218306 36.73049852 -27.64060974 39.39962769 C-28.64596235 40.41972723 -29.64426365 41.44682752 -30.63514709 42.48098755 C-38.43269983 50.60517082 -38.43269983 50.60517082 -42.4519043 51.61767578 C-44.67773438 51.62890625 -44.67773438 51.62890625 -48 51 C-47.46602951 46.92925515 -45.42786346 45.06444055 -42.57202148 42.23144531 C-41.88417572 41.54294243 -41.88417572 41.54294243 -41.18243408 40.8405304 C-39.66899112 39.329173 -38.14520986 37.82871211 -36.62109375 36.328125 C-35.56811838 35.2807464 -34.51580457 34.23270231 -33.46412659 33.184021 C-30.69730031 30.42863705 -27.9215829 27.68238176 -25.1439209 24.93792725 C-22.30992589 22.13464618 -19.48442747 19.32283007 -16.65820312 16.51171875 C-11.11375205 10.99942104 -5.55988091 5.49673895 0 0 Z " fill="#111111" transform="translate(48,461)"/>
<path d="M0 0 C3.16115776 1.36983503 3.9927092 1.9890638 6 5 C0.3353489 10.89692549 -5.35625069 16.76591901 -11.08369255 22.60181427 C-13.7427376 25.31292754 -16.39173866 28.03248231 -19.01953125 30.77392578 C-21.55862288 33.42212283 -24.12178244 36.04471651 -26.70303726 38.65180969 C-27.68066409 39.64783514 -28.64948516 40.65258746 -29.6088829 41.66618347 C-37.14816533 49.61375407 -37.14816533 49.61375407 -41.89703369 50.60424805 C-44.3540118 50.61396049 -46.59041749 50.46144838 -49 50 C-43.99744121 43.95734086 -38.56822676 38.43901957 -33.0078125 32.91015625 C-32.05209752 31.95631046 -31.09660612 31.00224059 -30.1413269 30.04795837 C-27.64805084 27.55846806 -25.15178475 25.07199776 -22.65484619 22.58618164 C-20.09878491 20.04042006 -17.54561495 17.49176223 -14.9921875 14.94335938 C-9.99758981 9.95942931 -4.99982201 4.97868952 0 0 Z " fill="#000000" transform="translate(402,462)"/>
<path d="M0 0 C2.23828125 1.64453125 2.23828125 1.64453125 4.3125 3.8125 C5.00988281 4.52019531 5.70726562 5.22789062 6.42578125 5.95703125 C8 8 8 8 8 11 C8.556875 11.103125 9.11375 11.20625 9.6875 11.3125 C14.74178986 12.81512672 18.32770594 15.44720271 21 20 C21.93835666 25.64056617 21.22430922 30.21554116 18 35 C13.92800537 39.98740427 10.55414021 42.92750433 4 44 C-1.1729736 44.44133061 -4.22486322 43.23152662 -8.75 40.75 C-9.87921875 40.14671875 -11.0084375 39.5434375 -12.171875 38.921875 C-15.0493043 36.96649487 -15.6085892 36.01689071 -17 33 C-20.56206661 32.18129815 -20.56206661 32.18129815 -24 32 C-24 31.01 -24 30.02 -24 29 C-22.35 28.34 -20.7 27.68 -19 27 C-19.474375 26.2575 -19.94875 25.515 -20.4375 24.75 C-22.17083421 21.6993318 -23.35464938 19.5378331 -22.546875 16.03515625 C-18.04214987 4.88375335 -18.04214987 4.88375335 -12 2 C-7.91372699 0.61358594 -4.31310851 -0.48877493 0 0 Z M-15.9375 8.1875 C-19.16593495 12.5899113 -19 16.59670673 -19 22 C-17.32346859 24.36788457 -15.33247088 26.27932476 -13 28 C-10.24425432 28.50549294 -10.24425432 28.50549294 -8 28 C-8.2165625 29.794375 -8.2165625 29.794375 -8.4375 31.625 C-8.42440437 35.29177725 -7.66559502 37.03390081 -5.0625 39.625 C-2.184542 41.71700963 -0.23543391 42.44191348 3.3125 42 C9.64382986 40.00579455 14.15978224 35.2427973 18 30 C19.39255933 26.78994596 19.82665742 24.41728461 19 21 C17.47930449 18.19567559 15.81351646 16.50785995 13 15 C10.13560769 14.5234553 7.93032337 14.6968631 5 15 C5.144375 14.319375 5.28875 13.63875 5.4375 12.9375 C4.76078407 8.3938359 1.61703003 5.68760047 -2 3 C-7.37397039 3 -11.66613791 5.00669844 -15.9375 8.1875 Z M-12 30 C-12 33 -12 33 -12 33 Z " fill="#131313" transform="translate(302,190)"/>
<path d="M0 0 C5.56141051 0.25948724 8.30008463 3.7287751 11.9934082 7.45996094 C12.67688828 8.13482544 13.36036835 8.80968994 14.06455994 9.50500488 C16.32027114 11.7380181 18.56093026 13.98546115 20.80078125 16.234375 C22.36253936 17.79089983 23.92481773 19.34690281 25.4875946 20.90240479 C28.75991003 24.16430924 32.02462135 27.43360011 35.28442383 30.70800781 C39.46704772 34.90783242 43.6696909 39.08695314 47.87846088 43.26055527 C51.10857583 46.46873599 54.32694522 49.68849741 57.54195213 52.91181183 C59.08713659 54.45781773 60.6361877 55.99996885 62.18911171 57.53820038 C64.35613315 59.6878483 66.50663901 61.85276763 68.65356445 64.02246094 C69.30026093 64.65746521 69.9469574 65.29246948 70.61325073 65.94671631 C74.91048922 70.33742397 74.91048922 70.33742397 75.39665222 73.93609619 C75.26575699 74.61718445 75.13486176 75.29827271 75 76 C70.10515987 71.89039714 65.47938531 67.62800048 60.96313477 63.10839844 C60.29886978 62.44749207 59.6346048 61.78658569 58.95021057 61.10565186 C56.77798166 58.94284393 54.60946932 56.77635833 52.44140625 54.609375 C50.92690724 53.09809158 49.41233396 51.5868826 47.89768982 50.07574463 C44.73641247 46.92043403 41.57718764 43.76308456 38.41918945 40.60449219 C34.36315892 36.54835945 30.30025868 32.49918279 26.23561192 28.45168686 C23.11223721 25.33939337 19.99338021 22.22260345 16.87580681 19.10449982 C15.37862209 17.60849833 13.87980831 16.11412542 12.37936592 14.6213913 C10.2918622 12.54362152 8.21071415 10.45968902 6.13110352 8.37402344 C5.50625061 7.75479004 4.88139771 7.13555664 4.23760986 6.49755859 C0 2.22832393 0 2.22832393 0 0 Z " fill="#000000" transform="translate(119,120)"/>
<path d="M0 0 C1.0325013 0.18743774 1.0325013 0.18743774 2.08586121 0.37866211 C-1.84584639 5.08611288 -5.93671165 9.54277921 -10.28669739 13.86474609 C-10.89229492 14.47048965 -11.49789246 15.07623322 -12.12184143 15.70033264 C-14.0997222 17.67752357 -16.08110793 19.65116087 -18.06257629 21.62475586 C-19.44427518 23.00458727 -20.82575167 24.38464141 -22.20701599 25.76490784 C-25.82478793 29.37888061 -29.44555398 32.98983884 -33.06697083 36.60015869 C-36.76915657 40.29207414 -40.4684765 43.98685874 -44.16804504 47.68139648 C-51.4139551 54.91661514 -58.66303434 62.14864952 -65.91413879 69.37866211 C-66.90413879 68.38866211 -67.89413879 67.39866211 -68.91413879 66.37866211 C-60.40989562 57.75866888 -51.89227029 49.15215058 -43.35720539 40.56266785 C-39.39462772 36.57397492 -35.43684356 32.58075575 -31.48957825 28.5769043 C-27.68147725 24.71455499 -23.861361 20.86447832 -20.03253746 17.02267456 C-18.5724933 15.55337782 -17.11686387 14.07968073 -15.66571999 12.60159302 C-13.63537714 10.53505808 -11.59002626 8.4846005 -9.5403595 6.43725586 C-8.94118713 5.82010712 -8.34201477 5.20295837 -7.72468567 4.56710815 C-3.57077926 0.46398573 -3.57077926 0.46398573 0 0 Z " fill="#121212" transform="translate(390.9141387939453,120.621337890625)"/>
<path d="M0 0 C0.99 0.33 1.98 0.66 3 1 C1.35606624 5.21592931 -1.76355386 8.03022614 -4.91845703 11.14550781 C-5.52347046 11.75081329 -6.12848389 12.35611877 -6.75183105 12.97976685 C-8.74911999 14.9756645 -10.75339558 16.96438799 -12.7578125 18.953125 C-14.14544502 20.33702668 -15.5326361 21.72137112 -16.91940308 23.10614014 C-20.567926 26.7470322 -24.22241552 30.38187778 -27.87817383 34.01550293 C-31.60859789 37.72545688 -35.33335643 41.44108927 -39.05859375 45.15625 C-46.36685747 52.44307344 -53.68143616 59.72352265 -61 67 C-62.32 66.34 -63.64 65.68 -65 65 C-43.55 43.55 -22.1 22.1 0 0 Z " fill="#111111" transform="translate(183,326)"/>
<path d="M0 0 C4.42765281 1.00757191 6.89727711 4.1708556 9.80419922 7.47607422 C11.00967676 8.77829547 12.21663706 10.07914618 13.42529297 11.37841797 C14.2034436 12.2503479 14.2034436 12.2503479 14.99731445 13.13989258 C16.3356225 14.65897346 16.3356225 14.65897346 18.36669922 15.53857422 C16.95954606 18.93919436 15.33801694 20.4308712 12.36669922 22.53857422 C11.55845703 21.66072266 10.75021484 20.78287109 9.91748047 19.87841797 C8.83886727 18.7435293 7.75939501 17.60945667 6.67919922 16.47607422 C6.14875 15.89535156 5.61830078 15.31462891 5.07177734 14.71630859 C3.56527976 13.15435712 2.1564117 11.76702099 0.36669922 10.53857422 C-2.39756377 10.34810563 -2.39756377 10.34810563 -4.63330078 11.53857422 C-6.45667831 13.49540302 -6.45667831 13.49540302 -7.63330078 15.53857422 C-7.96330078 14.54857422 -8.29330078 13.55857422 -8.63330078 12.53857422 C-13.60241444 13.66554465 -13.60241444 13.66554465 -17.63330078 16.53857422 C-18.32080078 14.72607422 -18.32080078 14.72607422 -18.63330078 12.53857422 C-17.11363897 10.37905481 -16.18301612 9.63852246 -13.57080078 9.16357422 C-12.93142578 8.95732422 -12.29205078 8.75107422 -11.63330078 8.53857422 C-10.52693683 6.14788688 -10.52693683 6.14788688 -9.63330078 3.53857422 C-6.8023557 -0.01518807 -4.36518424 -0.14942599 0 0 Z " fill="#EEEEEE" transform="translate(262.63330078125,241.46142578125)"/>
<path d="M0 0 C4.23058286 0.5046972 6.21173202 2.8494429 9.13574219 5.79516602 C9.63375839 6.29274414 10.1317746 6.79032227 10.6448822 7.30297852 C12.28609261 8.94627575 13.91642663 10.59993635 15.546875 12.25390625 C16.68393494 13.39656251 17.82165988 14.53855738 18.96002197 15.67991638 C21.95213476 18.68347506 24.93512859 21.69593414 27.9163208 24.71032715 C30.96089934 27.78561192 34.0140045 30.85240545 37.06640625 33.91992188 C43.05265518 39.93833045 49.02929845 45.96616717 55 52 C54.505 52.99 54.505 52.99 54 54 C49.82603166 53.48216663 47.86425176 51.24454187 44.95605469 48.34423828 C44.46779205 47.8612326 43.97952942 47.37822693 43.47647095 46.88058472 C41.86731754 45.28461772 40.26936556 43.67794724 38.671875 42.0703125 C37.55701829 40.95747659 36.44171657 39.84508634 35.32598877 38.73312378 C32.99105869 36.40261494 30.66163739 34.06676975 28.3359375 31.72705078 C25.35100494 28.72500676 22.35278076 25.73665723 19.35032272 22.7521534 C17.04583805 20.45849492 14.74852898 18.15775682 12.45334625 15.85479355 C11.3503175 14.7497606 10.24504776 13.64695998 9.1375351 12.54642105 C7.59311207 11.00959542 6.05859827 9.46351915 4.52636719 7.91455078 C3.65018738 7.03598419 2.77400757 6.1574176 1.87127686 5.25222778 C0 3 0 3 0 0 Z " fill="#000000" transform="translate(0,0)"/>
<path d="M0 0 C0.71673386 0.09655884 1.43346771 0.19311768 2.17192078 0.29260254 C-3.0762798 6.65768821 -8.85279375 12.44583229 -14.69526672 18.25744629 C-15.74066248 19.30097333 -16.78583497 20.34472406 -17.83079529 21.38868713 C-20.56080762 24.11490998 -23.29381115 26.83811435 -26.02748108 29.56066895 C-28.82483076 32.34772713 -31.61929624 35.137674 -34.41401672 37.92736816 C-39.88257617 43.38525335 -45.35430367 48.83994813 -50.82807922 54.29260254 C-51.81807922 53.30260254 -52.80807922 52.31260254 -53.82807922 51.29260254 C-47.27962301 44.62833787 -40.71778174 37.97763273 -34.13841724 31.3438797 C-31.08382477 28.26318448 -28.03406017 25.17800839 -24.99482727 22.08215332 C-22.06206558 19.09509764 -19.11728596 16.12039384 -16.16374779 13.15388489 C-15.03862385 12.0195165 -13.91791301 10.88075347 -12.80172157 9.7375946 C-11.23835958 8.13797822 -9.66008289 6.55465951 -8.0773468 4.97424316 C-7.18244034 4.06823364 -6.28753387 3.16222412 -5.36550903 2.22875977 C-2.82807922 0.29260254 -2.82807922 0.29260254 0 0 Z " fill="#000000" transform="translate(160.8280792236328,-0.2926025390625)"/>
<path d="M0 0 C0.99 0.33 1.98 0.66 3 1 C1.44068059 4.73546131 -0.86039128 7.10801519 -3.70922852 9.95214844 C-4.18583923 10.4306575 -4.66244995 10.90916656 -5.15350342 11.4021759 C-6.72379955 12.97616496 -8.30115822 14.54285853 -9.87890625 16.109375 C-10.97260887 17.20188527 -12.06594183 18.29476574 -13.15892029 19.38800049 C-15.44653464 21.67405274 -17.7374644 23.95671102 -20.03100586 26.23681641 C-22.97754963 29.16632047 -25.91741713 32.1024149 -28.85507298 35.0408287 C-31.11004869 37.29553324 -33.36761533 39.54762792 -35.62608147 41.79883575 C-36.71160034 42.88116338 -37.7965066 43.96410576 -38.88080025 45.04766083 C-40.39141949 46.55612417 -41.90527735 48.06125564 -43.42016602 49.56542969 C-44.28239273 50.4238446 -45.14461945 51.28225952 -46.03297424 52.16668701 C-48 54 -48 54 -49 54 C-49.4387538 50.59239474 -49.24600684 49.32552239 -47.13977051 46.53849792 C-46.26929077 45.67912125 -45.39881104 44.81974457 -44.50195312 43.93432617 C-44.02402817 43.45567108 -43.54610321 42.97701599 -43.05369568 42.4838562 C-41.4744442 40.90808217 -39.878239 39.35074666 -38.28125 37.79296875 C-37.18157131 36.7026176 -36.08299297 35.61115565 -34.98547363 34.51863098 C-32.09637211 31.64860372 -29.1925712 28.79390816 -26.28546143 25.94213867 C-23.32061303 23.02847301 -20.36990013 20.10056949 -17.41796875 17.17382812 C-11.62572669 11.43518133 -5.81787982 5.71265289 0 0 Z " fill="#000000" transform="translate(49,109)"/>
<path d="M0 0 C6.0127049 4.99157336 11.5529846 10.37587667 17.08984375 15.88671875 C17.55782442 16.35187204 18.02580509 16.81702534 18.507967 17.29627419 C20.974543 19.74798123 23.43832648 22.2024523 25.8996582 24.65942383 C28.44065774 27.19489233 30.99084019 29.72091594 33.54317379 32.24496746 C35.51009515 34.19331258 37.4703224 36.14828724 39.42874336 38.10517311 C40.82227211 39.49420382 42.22285725 40.87614359 43.6235199 42.25798035 C44.46181839 43.09927994 45.30011688 43.94057953 46.16381836 44.80737305 C47.27798378 45.91607002 47.27798378 45.91607002 48.41465759 47.04716492 C50 49 50 49 50 52 C45.8884164 51.47275535 43.99635871 49.35948786 41.13964844 46.48022461 C40.67089294 46.0119072 40.20213745 45.54358978 39.71917725 45.06108093 C38.17535675 43.51517453 36.6424274 41.95892317 35.109375 40.40234375 C34.03957606 39.32694816 32.96911176 38.25221408 31.89801025 37.17811584 C29.08344419 34.35210651 26.27800421 31.51720358 23.47436523 28.68035889 C20.61075972 25.78604148 17.73862139 22.90021924 14.8671875 20.01367188 C9.23640183 14.35073117 3.61522817 8.67836727 -2 3 C-1.34 2.01 -0.68 1.02 0 0 Z " fill="#000000" transform="translate(462,460)"/>
<path d="M0 0 C6.1241816 5.06500238 11.70715861 10.5782921 17.30859375 16.2109375 C18.28485986 17.18907267 19.26134994 18.16698435 20.23805237 19.14468384 C22.78672577 21.69714399 25.33237958 24.25259448 27.87738037 26.80871582 C30.48346618 29.42509914 33.09244621 32.03859303 35.70117188 34.65234375 C40.80359118 39.76543246 45.90281857 44.88168912 51 50 C50.67 50.99 50.34 51.98 50 53 C46.4160574 51.47456033 44.08421185 49.3542653 41.32324219 46.62963867 C40.40258972 45.7249736 39.48193726 44.82030853 38.53338623 43.88822937 C37.53740478 42.89862304 36.5419126 41.9085241 35.546875 40.91796875 C34.52133528 39.90139863 33.49571974 38.884905 32.47003174 37.8684845 C30.32460092 35.73952062 28.18358287 33.60622213 26.04492188 31.47045898 C23.30378969 28.73472233 20.5468528 26.01552379 17.78571701 23.29999828 C15.66346817 21.2074812 13.55255082 19.10381057 11.44461823 16.99688148 C10.43279515 15.98926485 9.41684951 14.98577046 8.3967514 13.98653221 C6.97246772 12.58908873 5.5653932 11.17417052 4.15917969 9.75854492 C3.35405945 8.95849533 2.54893921 8.15844574 1.71942139 7.33415222 C-0.27436533 4.62754305 -0.38767087 3.28480291 0 0 Z " fill="#080808" transform="translate(0,353)"/>
<path d="M0 0 C6.11416122 5.06141943 11.70456642 10.55950774 17.30859375 16.17578125 C18.28493423 17.15144692 19.26142301 18.1269642 20.23805237 19.1023407 C22.26929612 21.13212002 24.29874449 23.16367254 26.3269043 25.1965332 C28.93181915 27.80719049 31.54125989 30.41327093 34.15202236 33.0180788 C36.1620257 35.02448136 38.16965716 37.03324354 40.17656136 39.04274559 C41.13873896 40.00559145 42.10166318 40.96769178 43.06533623 41.92904091 C44.40330973 43.26449097 45.73776137 44.6034668 47.07202148 45.94262695 C47.83256332 46.70396439 48.59310516 47.46530182 49.37669373 48.24971008 C51 50 51 50 51 51 C47.62592737 51.42445484 46.33983232 51.25552094 43.57646179 49.17773438 C42.73485001 48.32501953 41.89323822 47.47230469 41.02612305 46.59375 C40.55722153 46.12557861 40.08832001 45.65740723 39.60520935 45.17504883 C38.06189443 43.62825698 36.5370329 42.06452852 35.01171875 40.5 C33.94378803 39.42274155 32.87474626 38.34658348 31.80464172 37.27148438 C28.99379436 34.44156424 26.19828547 31.59695136 23.40570068 28.74902344 C20.55236065 25.84449742 17.68477876 22.95410871 14.81835938 20.0625 C9.19819778 14.38874578 3.59416036 8.69939179 -2 3 C-1.34 2.01 -0.68 1.02 0 0 Z " fill="#090909" transform="translate(108,461)"/>
<path d="M0 0 C3.37407263 -0.42445484 4.66016768 -0.25552094 7.42353821 1.82226562 C8.68595589 3.10133789 8.68595589 3.10133789 9.97387695 4.40625 C10.44277847 4.87442139 10.91167999 5.34259277 11.39479065 5.82495117 C12.93810557 7.37174302 14.4629671 8.93547148 15.98828125 10.5 C17.05621197 11.57725845 18.12525374 12.65341652 19.19535828 13.72851562 C22.00620564 16.55843576 24.80171453 19.40304864 27.59429932 22.25097656 C30.44763935 25.15550258 33.31522124 28.04589129 36.18164062 30.9375 C41.80180222 36.61125422 47.40583964 42.30060821 53 48 C52.01 48.99 51.02 49.98 50 51 C43.47788589 44.50100689 36.95843937 37.99935321 30.44242859 31.49424076 C27.41704015 28.47408168 24.39072408 25.45486422 21.36230469 22.43774414 C18.44239534 19.52866178 15.52490124 16.61717767 12.60910034 13.70397758 C11.49354603 12.59027787 10.37710878 11.47746187 9.25979614 10.3655262 C7.70083233 8.81377033 6.14497423 7.25896528 4.58984375 5.70336914 C3.70159912 4.81734512 2.81335449 3.93132111 1.89819336 3.01844788 C0 1 0 1 0 0 Z " fill="#FBFBFB" transform="translate(354,0)"/>
<path d="M0 0 C3.54145246 1.51416552 5.85366009 3.58402402 8.58496094 6.27856445 C9.48559265 7.16320877 10.38622437 8.04785309 11.31414795 8.95930481 C12.28803464 9.92681637 13.2614321 10.8948206 14.234375 11.86328125 C15.23749464 12.85743097 16.24068993 13.85150435 17.24395752 14.84550476 C19.34230938 16.92739106 21.43624886 19.01360984 23.52783203 21.10229492 C26.20843364 23.77750092 28.90483205 26.43616014 31.60543442 29.09115314 C33.6813615 31.1373463 35.74595296 33.19469317 37.80756378 35.25530052 C38.79705831 36.24058909 39.7906747 37.22175615 40.78844452 38.19866371 C42.18159605 39.56497042 43.5575364 40.94875996 44.93261719 42.33325195 C45.71997253 43.11553665 46.50732788 43.89782135 47.31854248 44.70381165 C49.28278652 47.38617158 49.3741079 48.75013411 49 52 C42.95734086 46.99744121 37.43901957 41.56822676 31.91015625 36.0078125 C30.95631046 35.05209752 30.00224059 34.09660612 29.04795837 33.1413269 C26.55846806 30.64805084 24.07199776 28.15178475 21.58618164 25.65484619 C19.04042006 23.09878491 16.49176223 20.54561495 13.94335938 17.9921875 C8.95942931 12.99758981 3.97868952 7.99982201 -1 3 C-0.67 2.01 -0.34 1.02 0 0 Z " fill="#FBFBFB" transform="translate(463,106)"/>
<path d="M0 0 C0.4103552 3.34012695 0.26474234 4.64604499 -1.78430176 7.38557434 C-2.61925171 8.20942123 -3.45420166 9.03326813 -4.31445312 9.88208008 C-5.00207985 10.570802 -5.00207985 10.570802 -5.70359802 11.2734375 C-7.2179305 12.78429359 -8.74918173 14.27668079 -10.28125 15.76953125 C-11.33608821 16.81504154 -12.38982601 17.86166313 -13.44250488 18.90934753 C-16.21324374 21.66101517 -18.99866839 24.39733726 -21.78741455 27.1307373 C-24.63161823 29.9237516 -27.4616827 32.73101193 -30.29296875 35.53710938 C-35.84823422 41.03878498 -41.41909042 46.52432666 -47 52 C-47.99 51.67 -48.98 51.34 -50 51 C-48.46105711 47.34771612 -46.26576756 45.01804059 -43.47436523 42.23144531 C-42.78870987 41.54294243 -42.78870987 41.54294243 -42.08920288 40.8405304 C-40.58383542 39.33147141 -39.07141304 37.82971056 -37.55859375 36.328125 C-36.50973159 35.28045526 -35.46123917 34.23241525 -34.4131012 33.184021 C-32.21964316 30.99212481 -30.02287221 28.80362351 -27.82348633 26.61767578 C-24.99800935 23.80924065 -22.17921267 20.99421481 -19.36262417 18.17686844 C-17.20029455 16.01481 -15.03537443 13.85536183 -12.86955452 11.69680023 C-11.82869318 10.65912992 -10.7884442 9.620845 -9.74880791 8.58194733 C-8.30046944 7.13576484 -6.84845006 5.69327153 -5.39624023 4.25097656 C-4.5695433 3.42809143 -3.74284637 2.6052063 -2.89109802 1.75738525 C-1 0 -1 0 0 0 Z " fill="#FDFDFD" transform="translate(512,3)"/>
<path d="M0 0 C0.39645767 3.30577757 0.27367513 4.63209721 -1.74633789 7.34761047 C-2.97211548 8.55673347 -2.97211548 8.55673347 -4.22265625 9.7902832 C-5.14361084 10.71086014 -6.06456543 11.63143707 -7.01342773 12.57991028 C-8.02952122 13.57047141 -9.04588506 14.56075529 -10.0625 15.55078125 C-11.09491798 16.57387109 -12.12623551 17.59807251 -13.15649414 18.62333679 C-15.86805184 21.31582487 -18.59428805 23.99296003 -21.32385254 26.66717529 C-24.1077339 29.39986373 -26.87747408 32.14680256 -29.6484375 34.89257812 C-35.08521528 40.2757689 -40.53757818 45.64281933 -46 51 C-46.99 50.67 -47.98 50.34 -49 50 C-47.471717 46.38967135 -45.32836339 44.08058234 -42.56616211 41.32324219 C-41.18979836 39.94226349 -41.18979836 39.94226349 -39.78562927 38.53338623 C-38.78304791 37.53770072 -37.78028169 36.54220133 -36.77734375 35.546875 C-35.75090183 34.52162553 -34.72482966 33.49600574 -33.69911194 32.47003174 C-31.55273204 30.32521355 -29.40304056 28.18379075 -27.25073242 26.04492188 C-24.48578879 23.29702123 -21.72752759 20.5425297 -18.97147274 17.78571701 C-16.85546617 15.66998162 -14.7368693 13.55685671 -12.61737251 11.44461823 C-11.59883994 10.42927657 -10.58091961 9.41332038 -9.56361198 8.3967514 C-8.14640641 6.98170187 -6.72552001 5.57034161 -5.30444336 4.15917969 C-4.0910453 2.95149933 -4.0910453 2.95149933 -2.85313416 1.71942139 C-1 0 -1 0 0 0 Z " fill="#F7F7F7" transform="translate(512,358)"/>
<path d="M0 0 C0.99 0.99 1.98 1.98 3 3 C-2.89652867 9.01236525 -8.80643312 15.01111944 -14.73390484 20.9929657 C-17.48583957 23.77099721 -20.23292992 26.55348774 -22.96948242 29.34667969 C-25.61046158 32.04197475 -28.26345996 34.72487988 -30.92524147 37.39962769 C-31.93872682 38.4223536 -32.94779988 39.44947145 -33.95233727 40.48098755 C-35.35972119 41.92464769 -36.78437177 43.35141399 -38.2097168 44.77734375 C-39.0157988 45.59452881 -39.8218808 46.41171387 -40.65238953 47.25366211 C-43.36790279 49.27367513 -44.69422243 49.39645767 -48 49 C-43.06002739 43.03881703 -37.71470138 37.58513698 -32.2265625 32.12890625 C-31.3028183 31.206577 -30.3790741 30.28424774 -29.42733765 29.33396912 C-26.99324569 26.90366186 -24.55616403 24.47637504 -22.1184082 22.04974365 C-19.6226689 19.56430636 -17.12982292 17.07597068 -14.63671875 14.58789062 C-9.7606114 9.72244904 -4.88133369 4.86019802 0 0 Z " fill="#FDFDFD" transform="translate(51,463)"/>
<path d="M0 0 C0.99 0.99 1.98 1.98 3 3 C-2.76614098 8.88198391 -8.54565984 14.75034933 -14.34275341 20.60181427 C-17.03415694 23.31931323 -19.72071235 26.04126625 -22.39672852 28.77392578 C-24.97935092 31.41086907 -27.57399284 34.03541378 -30.17742348 36.65180969 C-31.16858124 37.65220714 -32.15532689 38.6569959 -33.13753319 39.66618347 C-34.51377857 41.07871155 -35.9073013 42.47434358 -37.30151367 43.86914062 C-38.08983078 44.66856079 -38.87814789 45.46798096 -39.69035339 46.29162598 C-42.38168843 48.2823231 -43.72896521 48.38276502 -47 48 C-42.12275563 42.1202495 -36.86113122 36.73119183 -31.4453125 31.34765625 C-30.54376434 30.44752304 -29.64221619 29.54738983 -28.71334839 28.61997986 C-26.33801783 26.24927177 -23.96054595 23.88075485 -21.58197021 21.51330566 C-19.14655283 19.08819272 -16.71403088 16.66017915 -14.28125 14.23242188 C-9.52347231 9.48562872 -4.7628462 4.74170719 0 0 Z " fill="#F7F7F7" transform="translate(405,464)"/>
<path d="M0 0 C5.29012124 4.40843437 10.18808428 9.07559794 15 14 C13.65140392 18.04578824 11.78002983 18.5970333 8.125 20.6875 C7.05507812 21.31011719 5.98515625 21.93273437 4.8828125 22.57421875 C2 24 2 24 -1 24 C-1.02887236 20.18751574 -1.04675492 16.3750593 -1.0625 12.5625 C-1.07087891 11.47388672 -1.07925781 10.38527344 -1.08789062 9.26367188 C-1.09111328 8.22919922 -1.09433594 7.19472656 -1.09765625 6.12890625 C-1.10289307 5.17056885 -1.10812988 4.21223145 -1.11352539 3.22485352 C-1 1 -1 1 0 0 Z " fill="#FEFEFE" transform="translate(195,314)"/>
<path d="M0 0 C1.00693931 1.66248338 2.00548558 3.33005424 3 5 C4.86384305 6.99870868 6.72635773 8.91715089 8.6875 10.8125 C9.19861328 11.31458984 9.70972656 11.81667969 10.23632812 12.33398438 C11.48634362 13.56063509 12.7425468 14.78097491 14 16 C11.49038462 21.18010355 11.49038462 21.18010355 9 23 C6.8125 22.6875 6.8125 22.6875 5 22 C5.66 22 6.32 22 7 22 C2.48979324 16.67766598 -2.22395 11.78862467 -7.375 7.078125 C-9 5 -9 5 -8.8984375 2.81640625 C-8 1 -8 1 -5.625 -0.3125 C-3 -1 -3 -1 0 0 Z " fill="#F7F7F7" transform="translate(255,254)"/>
<path d="M0 0 C2.23828125 1.64453125 2.23828125 1.64453125 4.3125 3.8125 C5.00988281 4.52019531 5.70726562 5.22789062 6.42578125 5.95703125 C8 8 8 8 8 11 C8.8353125 11.1546875 8.8353125 11.1546875 9.6875 11.3125 C14.74178986 12.81512672 18.32770594 15.44720271 21 20 C21.32101581 23.03181598 21.23808873 25.96436873 21 29 C20.01 29.33 19.02 29.66 18 30 C18.05800781 29.40832031 18.11601562 28.81664062 18.17578125 28.20703125 C18.42134891 23.90608902 18.44789885 21.67184827 16 18 C12.13303207 15.42202138 9.60354748 15.23407869 5 15 C4.79375 14.113125 4.5875 13.22625 4.375 12.3125 C2.56664006 7.9559965 0.9150177 6.6100118 -3 4 C-5.75401951 3.57869093 -5.75401951 3.57869093 -8 4 C-7.67 3.01 -7.34 2.02 -7 1 C-4.40873176 -0.29563412 -2.87915333 -0.32746648 0 0 Z M16 31 C16 34 16 34 14 36.1875 C13.34 36.785625 12.68 37.38375 12 38 C11.34 37.67 10.68 37.34 10 37 C11.98 35.02 13.96 33.04 16 31 Z " fill="#181818" transform="translate(302,190)"/>
<path d="M0 0 C6.61183519 5.38172632 12.51771495 11.42984308 18.50219727 17.48608398 C20.65922677 19.6663187 22.82960029 21.83308408 25 24 C28.33333333 27.33333333 31.66666667 30.66666667 35 34 C34.01 34.99 33.02 35.98 32 37 C22.4345949 27.60781149 22.4345949 27.60781149 18.8125 23.3125 C16.42300802 20.48802768 13.88568309 17.8843899 11.234375 15.30859375 C10.55141357 14.64239014 9.86845215 13.97618652 9.16479492 13.28979492 C7.77764313 11.94388234 6.38209258 10.60656518 4.9777832 9.27856445 C4.33671631 8.65554443 3.69564941 8.03252441 3.03515625 7.390625 C2.4512915 6.83407227 1.86742676 6.27751953 1.26586914 5.70410156 C0 4 0 4 0 0 Z " fill="#EAEAEA" transform="translate(194,192)"/>
<path d="M0 0 C1.17369141 0.30357422 1.17369141 0.30357422 2.37109375 0.61328125 C3.15613281 0.80277344 3.94117188 0.99226562 4.75 1.1875 C6.80859375 1.92578125 6.80859375 1.92578125 8.80859375 3.92578125 C8.80859375 4.91578125 8.80859375 5.90578125 8.80859375 6.92578125 C10.45859375 7.58578125 12.10859375 8.24578125 13.80859375 8.92578125 C13.80859375 9.25578125 13.80859375 9.58578125 13.80859375 9.92578125 C12.29265625 10.29703125 12.29265625 10.29703125 10.74609375 10.67578125 C7.8987952 11.47441377 5.53907343 12.54422606 2.99609375 14.05078125 C-0.19140625 15.92578125 -0.19140625 15.92578125 -2.19140625 15.92578125 C-2.37890625 13.55078125 -2.37890625 13.55078125 -2.19140625 10.92578125 C0.79506144 8.93480279 3.40546637 7.98453199 6.80859375 6.92578125 C6.47859375 5.93578125 6.14859375 4.94578125 5.80859375 3.92578125 C1.71649159 3.43862623 0.10792438 3.72622749 -3.37890625 6.05078125 C-6.2004822 8.69368221 -7.97601517 11.20364605 -9.19140625 14.92578125 C-8.50498541 18.24048783 -8.50498541 18.24048783 -7.19140625 20.92578125 C-9.17140625 20.26578125 -11.15140625 19.60578125 -13.19140625 18.92578125 C-12.27154664 11.93167625 -10.20504527 7.85011882 -5.19140625 2.92578125 C-4.72734375 2.35214844 -4.26328125 1.77851563 -3.78515625 1.1875 C-2.19140625 -0.07421875 -2.19140625 -0.07421875 0 0 Z " fill="#E7E7E7" transform="translate(278.19140625,220.07421875)"/>
<path d="M0 0 C0.99 0.66 1.98 1.32 3 2 C4.175625 2 5.35125 2 6.5625 2 C7.696875 2 8.83125 2 10 2 C10.66 2.66 11.32 3.32 12 4 C8.68604223 5.12975833 5.40297337 6.17884773 2 7 C1.96261719 7.59167969 1.92523438 8.18335938 1.88671875 8.79296875 C1.40555296 14.57639284 0.28343053 18.06416075 -3.3125 22.6875 C-7.74461851 26.13470329 -12.58558127 26.21657675 -18 26 C-17 24 -17 24 -15.109375 23.32421875 C-14.33078125 23.11410156 -13.5521875 22.90398437 -12.75 22.6875 C-8.39254259 21.33446784 -5.97853499 19.5370103 -3 16 C-2.67 15.67 -2.34 15.34 -2 15 C-1.66863856 10.9685726 -1.66863856 10.9685726 -2 7 C-3.84188612 4.94729537 -3.84188612 4.94729537 -6 4 C-4.02 2.68 -2.04 1.36 0 0 Z " fill="#EDEDED" transform="translate(235,290)"/>
<path d="M0 0 C3.98381075 2.16264012 6.88983545 4.71211176 10 8 C8.77582253 11.67253242 7.1649733 12.37266246 3.83984375 14.140625 C1.51354271 15.22721996 -0.42749425 15.86094564 -3 16 C-5.3125 15.0625 -5.3125 15.0625 -7 14 C-6.67 15.65 -6.34 17.3 -6 19 C-6.66 19.33 -7.32 19.66 -8 20 C-8 17.36 -8 14.72 -8 12 C-6.3603125 11.38125 -6.3603125 11.38125 -4.6875 10.75 C-1.48984058 9.39714409 0.20653426 8.05944156 2 5 C0.68 4.34 -0.64 3.68 -2 3 C-1.34 2.01 -0.68 1.02 0 0 Z " fill="#171717" transform="translate(224,282)"/>
<path d="M0 0 C1.32 0.66 2.64 1.32 4 2 C3.67 3.32 3.34 4.64 3 6 C2.071875 6.12375 2.071875 6.12375 1.125 6.25 C-1.18581338 6.80115872 -1.18581338 6.80115872 -2.1328125 9.046875 C-2.41898438 9.69140625 -2.70515625 10.3359375 -3 11 C-2.4946875 11.44730469 -1.989375 11.89460938 -1.46875 12.35546875 C3.90394511 17.35506003 3.90394511 17.35506003 4.4375 20.9375 C4.2209375 21.9584375 4.2209375 21.9584375 4 23 C-0.56030824 19.19524578 -4.85089392 15.25030379 -9 11 C-7.59155282 7.78475695 -5.89655214 5.67816132 -3.375 3.25 C-2.74335938 2.63640625 -2.11171875 2.0228125 -1.4609375 1.390625 C-0.73777344 0.70226562 -0.73777344 0.70226562 0 0 Z " fill="#121212" transform="translate(190,292)"/>
<path d="M0 0 C3.32311195 0.18126065 5.98728092 0.39236855 8.875 2.125 C10.63338348 5.05563913 10.87924274 7.61879675 11 11 C9.5625 12.9375 9.5625 12.9375 8 14 C0.93950851 11.96030246 0.93950851 11.96030246 -1 9 C-1.8125 5.4375 -1.8125 5.4375 -2 2 C-1.34 1.34 -0.68 0.68 0 0 Z M2 3 C1.6 6.83125 1.6 6.83125 3.3125 8.75 C5.0517724 10.29761378 5.0517724 10.29761378 8 10 C7.4409112 6.75728494 6.5867822 5.06942576 4 3 C3.34 3 2.68 3 2 3 Z " fill="#0F0F0F" transform="translate(236,272)"/>
<path d="M0 0 C2.0625 0.4375 2.0625 0.4375 4 1 C3.01 1.33 2.02 1.66 1 2 C1 4.31 1 6.62 1 9 C1.61488281 8.65066406 2.22976562 8.30132812 2.86328125 7.94140625 C3.67152344 7.48636719 4.47976562 7.03132813 5.3125 6.5625 C6.11300781 6.11003906 6.91351563 5.65757812 7.73828125 5.19140625 C10 4 10 4 13 3 C12.74337755 4.44010481 12.46909179 5.8770687 12.1875 7.3125 C12.03667969 8.11300781 11.88585937 8.91351563 11.73046875 9.73828125 C10.90848317 12.28335959 10.13825729 13.41054482 8 15 C4.92459299 14.87185804 2.83248134 14.61463576 0.328125 12.765625 C-1.46445887 10.38254291 -1.33599512 8.82463275 -1.25 5.875 C-1.23453125 4.98554688 -1.2190625 4.09609375 -1.203125 3.1796875 C-1 1 -1 1 0 0 Z " fill="#FCFCFC" transform="translate(216,292)"/>
<path d="M0 0 C0.66 0.33 1.32 0.66 2 1 C2 1.99 2 2.98 2 4 C1.2575 4.2475 0.515 4.495 -0.25 4.75 C-3.34231715 6.15559871 -4.84242567 7.38261475 -7 10 C-7.90466931 13.02301398 -7.90466931 13.02301398 -8.25 16.25 C-8.39953125 17.32765625 -8.5490625 18.4053125 -8.703125 19.515625 C-8.80109375 20.33546875 -8.8990625 21.1553125 -9 22 C-9.99 21.34 -10.98 20.68 -12 20 C-12.80848941 14.78973491 -12.40028039 11.99288451 -9.3125 7.6875 C-6.85791627 4.72105995 -4.49910632 2.69956593 -1 1 C-0.67 0.67 -0.34 0.34 0 0 Z M-18 20 C-16.35 20.33 -14.7 20.66 -13 21 C-12.67 21.99 -12.34 22.98 -12 24 C-14.31 24 -16.62 24 -19 24 C-18.67 22.68 -18.34 21.36 -18 20 Z " fill="#080808" transform="translate(235,261)"/>
<path d="M0 0 C6.3673938 5.28358209 6.3673938 5.28358209 9.15234375 8.4375 C13.07917352 13.20225306 13.07917352 13.20225306 18.57421875 15.3515625 C20.82305133 15.09031664 22.84881712 14.6967188 25 14 C20.56923077 19.78461538 20.56923077 19.78461538 17.6875 20.875 C17.130625 20.91625 16.57375 20.9575 16 21 C15.79375 20.30519531 15.5875 19.61039062 15.375 18.89453125 C13.55896471 15.07157059 11.01134053 12.6100628 8 9.6875 C7.4534375 9.13771484 6.906875 8.58792969 6.34375 8.02148438 C3.66618434 4.9912738 3.66618434 4.9912738 0 4 C0 2.68 0 1.36 0 0 Z " fill="#E6E6E6" transform="translate(194,311)"/>
<path d="M0 0 C1.32 0.99 2.64 1.98 4 3 C3.45730469 3.36351562 2.91460937 3.72703125 2.35546875 4.1015625 C-2.04611128 7.19456468 -5.43184492 9.62346829 -7 15 C-6.31357916 18.31470658 -6.31357916 18.31470658 -5 21 C-6.98 20.34 -8.96 19.68 -11 19 C-10.08014039 12.005895 -8.01363902 7.92433757 -3 3 C-2.44183594 2.44054687 -1.88367188 1.88109375 -1.30859375 1.3046875 C-0.87675781 0.87414062 -0.44492187 0.44359375 0 0 Z " fill="#EEEEEE" transform="translate(276,220)"/>
<path d="M0 0 C4.91935902 4.11619836 9.52647956 8.40410362 14 13 C13.01 13.99 12.02 14.98 11 16 C9.33901632 14.47466834 7.69670652 12.92898601 6.0625 11.375 C5.14597656 10.51648438 4.22945312 9.65796875 3.28515625 8.7734375 C0.7680926 5.71853974 0.26842193 3.89497361 0 0 Z " fill="#050505" transform="translate(215,213)"/>
<path d="M0 0 C1.32 0.99 2.64 1.98 4 3 C3.25 7.75 3.25 7.75 1 10 C-1.5 9.8125 -1.5 9.8125 -4 9 C-4.66 8.01 -5.32 7.02 -6 6 C-4.95125002 3.37812506 -4.35068687 2.20628639 -1.875 0.75 C-1.25625 0.5025 -0.6375 0.255 0 0 Z M-2 4 C-2 4.66 -2 5.32 -2 6 C-1.34 6 -0.68 6 0 6 C0 5.34 0 4.68 0 4 C-0.66 4 -1.32 4 -2 4 Z " fill="#191919" transform="translate(296,201)"/>
<path d="M0 0 C4.66666667 4.66666667 9.33333333 9.33333333 14 14 C13.67 14.99 13.34 15.98 13 17 C7.33870569 12.30233025 2.14771096 7.25276628 -3 2 C-2.01 1.34 -1.02 0.68 0 0 Z " fill="#EAEAEA" transform="translate(393,390)"/>
<path d="M0 0 C0.25 2.75 0.25 2.75 0 6 C-2 8.375 -2 8.375 -4 10 C-7.16115776 8.63016497 -7.9927092 8.0109362 -10 5 C-7.3491787 0.07704616 -5.59728355 -1.737088 0 0 Z M-5 2 C-5.33 3.32 -5.66 4.64 -6 6 C-5.01 6.33 -4.02 6.66 -3 7 C-2.67 6.34 -2.34 5.68 -2 5 C-2.33 4.01 -2.66 3.02 -3 2 C-3.66 2 -4.32 2 -5 2 Z " fill="#0C0C0C" transform="translate(311,213)"/>
<path d="M0 0 C-1 3 -1 3 -3.375 4.3125 C-6.24930967 5.84025552 -6.24930967 5.84025552 -7.5 9.0625 C-9 12 -9 12 -11.4375 13.25 C-12.283125 13.4975 -13.12875 13.745 -14 14 C-15.34147908 14.65012006 -16.67635857 15.31429191 -18 16 C-17.61328125 15.56429687 -17.2265625 15.12859375 -16.828125 14.6796875 C-14.2944966 11.78232037 -12.00640984 9.01010036 -9.9375 5.75 C-7.2078765 1.87569568 -4.79386128 0 0 0 Z " fill="#060606" transform="translate(260,239)"/>
<path d="M0 0 C0.99 0.33 1.98 0.66 3 1 C1.73532205 4.79403384 0.38302487 5.06684293 -3 7 C-5.4258975 9.06650528 -6.69928785 11.09841136 -8 14 C-8.66 14 -9.32 14 -10 14 C-9.43289338 10.03025365 -8.38663899 7.23901005 -6 4 C-3.375 2.25 -3.375 2.25 -1 1 C-0.67 0.67 -0.34 0.34 0 0 Z " fill="#020202" transform="translate(291,191)"/>
<path d="M0 0 C1.32 0.33 2.64 0.66 4 1 C-3.28399258 9.68572311 -3.28399258 9.68572311 -7 13 C-7.99 13 -8.98 13 -10 13 C-8.60366893 9.81440048 -6.95442507 7.76056155 -4.4375 5.375 C-1.85984611 2.95478041 -1.85984611 2.95478041 0 0 Z " fill="#E8E8E8" transform="translate(117,392)"/>
<path d="M0 0 C4.88049925 3.9419417 9.0580583 8.11950075 13 13 C11.68 13.33 10.36 13.66 9 14 C8.52949219 13.45730469 8.05898437 12.91460937 7.57421875 12.35546875 C6.95160156 11.64003906 6.32898438 10.92460938 5.6875 10.1875 C5.07261719 9.47980469 4.45773438 8.77210937 3.82421875 8.04296875 C2.26665665 6.29863261 0.67341125 4.63221959 -1 3 C-0.67 2.01 -0.34 1.02 0 0 Z " fill="#EBEBEB" transform="translate(109,107)"/>
<path d="M0 0 C0.99 0.33 1.98 0.66 3 1 C1.01929545 3.35043607 -0.98619077 5.67790392 -3 8 C-3.680625 8.804375 -4.36125 9.60875 -5.0625 10.4375 C-7 12 -7 12 -9.75 12.25 C-10.4925 12.1675 -11.235 12.085 -12 12 C-8 8 -4 4 0 0 Z " fill="#EBEBEB" transform="translate(401,109)"/>
<path d="M0 0 C0.66 0.66 1.32 1.32 2 2 C-2.48763274 7.44464952 -6.14168187 11.71389396 -13 14 C-11.5954202 10.62318639 -10.06113674 9.0549317 -7.0625 7 C-4.08104676 4.949206 -2.05524616 2.98944896 0 0 Z " fill="#020202" transform="translate(320,220)"/>
<path d="M0 0 C-0.71027344 0.60328125 -1.42054688 1.2065625 -2.15234375 1.828125 C-3.07144531 2.62734375 -3.99054688 3.4265625 -4.9375 4.25 C-5.85402344 5.03890625 -6.77054687 5.8278125 -7.71484375 6.640625 C-9.91526249 8.91251033 -10.66832555 9.92319022 -11 13 C-11.66 12.67 -12.32 12.34 -13 12 C-11.81603772 6.51072032 -10.46844653 3.70554103 -6 0 C-3 -1 -3 -1 0 0 Z " fill="#C4C4C4" transform="translate(296,195)"/>
<path d="M0 0 C2.0625 0.4375 2.0625 0.4375 4 1 C3.01 1.33 2.02 1.66 1 2 C1 4.31 1 6.62 1 9 C3.64 10.32 6.28 11.64 9 13 C8.67 13.66 8.34 14.32 8 15 C2.54191115 14.39354568 2.54191115 14.39354568 0.31640625 12.77734375 C-1.45564225 10.38481536 -1.33589776 8.82129328 -1.25 5.875 C-1.23453125 4.98554688 -1.2190625 4.09609375 -1.203125 3.1796875 C-1 1 -1 1 0 0 Z " fill="#C9C9C9" transform="translate(216,292)"/>
<path d="M0 0 C0.66 0.33 1.32 0.66 2 1 C2 1.99 2 2.98 2 4 C0.9171875 4.309375 0.9171875 4.309375 -0.1875 4.625 C-3.9255306 6.45248163 -5.49246917 8.70438806 -8 12 C-8.66 11.34 -9.32 10.68 -10 10 C-7.77659224 5.55318449 -5.21302802 3.56445184 -1 1 C-0.67 0.67 -0.34 0.34 0 0 Z " fill="#020202" transform="translate(235,261)"/>
<path d="M0 0 C-1.29299694 2.88437779 -2.65941363 4.87219421 -5 7 C-6.32 6.34 -7.64 5.68 -9 5 C-9 4.01 -9 3.02 -9 2 C-2.25 0 -2.25 0 0 0 Z " fill="#DADADA" transform="translate(85,104)"/>
<path d="M0 0 C0.33 0.66 0.66 1.32 1 2 C2.98 2 4.96 2 7 2 C7 2.33 7 2.66 7 3 C3.7 3.66 0.4 4.32 -3 5 C-1 1 -1 1 0 0 Z M-8 8 C-7.34 8 -6.68 8 -6 8 C-6.8125 9.9375 -6.8125 9.9375 -8 12 C-8.99 12.33 -9.98 12.66 -11 13 C-9.125 9.125 -9.125 9.125 -8 8 Z " fill="#DDDDDD" transform="translate(215,283)"/>
<path d="M0 0 C0 0.99 0 1.98 0 3 C-1.175625 3.433125 -1.175625 3.433125 -2.375 3.875 C-5.09671632 4.84912254 -5.09671632 4.84912254 -7 7 C-7.6875 5.1875 -7.6875 5.1875 -8 3 C-5.85915306 -0.33020635 -3.75910189 -0.30479204 0 0 Z " fill="#BEBEBE" transform="translate(252,251)"/>
<path d="M0 0 C1.485 0.99 1.485 0.99 3 2 C3.1875 5.125 3.1875 5.125 3 8 C3.66 8 4.32 8 5 8 C5.33 8.99 5.66 9.98 6 11 C5.01 11.99 4.02 12.98 3 14 C2.86722656 13.32453125 2.73445312 12.6490625 2.59765625 11.953125 C2.42105469 11.06109375 2.24445313 10.1690625 2.0625 9.25 C1.88847656 8.36828125 1.71445313 7.4865625 1.53515625 6.578125 C1.07631512 4.36764947 0.56663926 2.18487932 0 0 Z " fill="#D1D1D1" transform="translate(252,271)"/>
<path d="M0 0 C-0.254496 1.48206495 -0.52911762 2.96068615 -0.8125 4.4375 C-0.96332031 5.26121094 -1.11414063 6.08492188 -1.26953125 6.93359375 C-1.51058594 7.61550781 -1.75164062 8.29742187 -2 9 C-2.99 9.33 -3.98 9.66 -5 10 C-5.3669579 3.51707705 -5.3669579 3.51707705 -3.625 1.0625 C-2 0 -2 0 0 0 Z " fill="#E9E9E9" transform="translate(229,295)"/>
<path d="M0 0 C0.66 0.33 1.32 0.66 2 1 C0.90716423 2.03295436 -0.19970579 3.05107835 -1.3125 4.0625 C-1.92738281 4.63097656 -2.54226562 5.19945312 -3.17578125 5.78515625 C-3.77777344 6.18605469 -4.37976563 6.58695312 -5 7 C-5.99 6.67 -6.98 6.34 -8 6 C-5.63404067 3.38499232 -3.13950774 1.61000397 0 0 Z " fill="#050505" transform="translate(217,325)"/>
<path d="M0 0 C0.99 0.33 1.98 0.66 3 1 C0.14723863 3.93200474 -2.65079784 6.64315404 -6 9 C-5.52797514 4.75177626 -3.03344482 2.80010291 0 0 Z " fill="#9E9E9E" transform="translate(233,265)"/>
<path d="M0 0 C0.061875 0.556875 0.12375 1.11375 0.1875 1.6875 C1.33373872 4.94987173 3.49390197 6.68667874 6 9 C4.35 8.67 2.7 8.34 1 8 C1 7.34 1 6.68 1 6 C0.34 6 -0.32 6 -1 6 C-1.042721 4.33388095 -1.04063832 2.66617115 -1 1 C-0.67 0.67 -0.34 0.34 0 0 Z " fill="#BABABA" transform="translate(301,215)"/>
<path d="M0 0 C0.66 0 1.32 0 2 0 C0.95125002 2.62187494 0.35068687 3.79371361 -2.125 5.25 C-2.74375 5.4975 -3.3625 5.745 -4 6 C-2.84826645 3.53199953 -1.95216435 1.95216435 0 0 Z " fill="#EFEFEF" transform="translate(210,286)"/>
<path d="M0 0 C1.32 0.33 2.64 0.66 4 1 C3.67 3.31 3.34 5.62 3 8 C2.34 7.67 1.68 7.34 1 7 C0.59270772 4.67843403 0.25561323 2.3431213 0 0 Z " fill="#E5E5E5" transform="translate(296,232)"/>
</svg>

